<?xml version="1.0" encoding="UTF-8"?>
<svg id="Vrstva_2" data-name="Vrstva 2" xmlns="http://www.w3.org/2000/svg" viewBox="0 0 291.23 83.09">
  <defs>
    <style>
      .cls-1 {
        fill: #f9f8f8;
      }

      .cls-2 {
        fill: #ee8119;
      }

      .cls-3 {
        fill: #fafafa;
      }

      .cls-4 {
        fill: #d8231b;
      }

      .cls-5 {
        fill: #fbfaf9;
      }

      .cls-6 {
        fill: #da241c;
      }

      .cls-7 {
        fill: #fdfcfb;
      }

      .cls-8 {
        fill: #d9231b;
      }

      .cls-9 {
        fill: #fbfafa;
      }

      .cls-10 {
        fill: #ed8018;
      }

      .cls-11 {
        fill: #ec8017;
      }

      .cls-12 {
        fill: #eb8019;
      }

      .cls-13 {
        fill: #faf9f9;
      }

      .cls-14 {
        fill: #ec8119;
      }

      .cls-15 {
        fill: #040202;
      }

      .cls-16 {
        fill: #050303;
      }

      .cls-17 {
        fill: #0e0b08;
      }

      .cls-18 {
        fill: #ed8019;
      }

      .cls-19 {
        fill: #fcfbfb;
      }

      .cls-20 {
        fill: #da231b;
      }

      .cls-21 {
        fill: #ee8118;
      }

      .cls-22 {
        fill: #d9251b;
      }

      .cls-23 {
        fill: #fafaf9;
      }
    </style>
  </defs>
  <g id="KANELKAOS_deisgn1_1_Obraz" data-name="KANELKAOS deisgn1 (1) Obraz">
    <g>
      <path class="cls-16" d="M85.33,80.14c-2.43,2.17-5.14,2.19-7.87,1.8-3.15-.45-6.27-1.18-9.43-1.59-1.97-.26-3.98-.16-5.98-.2-1.35-.03-2.71-.04-4.07-.04-1.82,0-3.2-.83-4.31-2.21-.34-.42-.7-.84-1.17-1.41-.38,.71-.69,1.23-.95,1.78-1.5,3.23-4.2,4.45-7.57,4.4-1.43-.02-2.86-.29-4.28-.49-3-.43-6.01-.84-9-1.34-2.52-.42-5.06-.83-6.78-2.66-1.49,1.12-2.75,2.41-4.29,3.15-4.66,2.24-9.53,2.07-14.14,.02C1.55,79.6,.06,75.93,.01,71.75c-.05-4.16,.08-8.31,.12-12.47,.12-14.79,.22-29.58,.37-44.37,.03-2.81,.45-5.57,1.89-8.06,1.75-3.03,4.35-4.56,7.87-4.48,3.89,.09,7.58,1.08,11.09,2.67,1.07,.48,1.96,1.36,2.94,2.06,1.68-1.12,3.29-2.44,5.11-3.34,4.18-2.05,8.33-2.69,13.12-1.23,4.39,1.34,9.13,2.31,13.89,1.42,.31-.06,.63-.1,.94-.18,2.34-.56,4.68-1.01,6.65,.44,1.28-1,2.28-2.2,3.54-2.64,1.44-.5,3.21-.74,4.66-.38,4.17,1.05,8.26,2.4,12.34,3.77,1.1,.37,2.03,1.21,3.07,1.85,1.42-1.01,2.76-2.16,4.28-2.98,2.16-1.16,4.37-2.54,6.72-2.97,3.07-.56,6.24-1.22,9.44-.58,4.54,.91,9.07,1.82,13.62,2.63,6.45,1.14,12.97,1.33,19.51,1.42,1.87,.03,3.85,.38,5.57,1.09,2.39,.98,3.88,2.98,4.27,5.67,.24-.11,.45-.13,.47-.21,1.21-3.94,3.97-6.1,7.94-6.65,3.39-.48,6.8-.84,10.21-1,1.44-.07,2.92,.51,4.75,.86,.79-.54,1.89-1.46,3.13-2.11,3.66-1.93,7.65-2.19,11.66-1.84,1.14,.1,2.21,.83,3.33,1.24,1.18,.43,2.36,.88,3.57,1.23,1.38,.39,2.8,.63,4.18,1.01,2.34,.65,4.68,.89,7.1,.46,1.41-.25,2.84-.41,4.28-.48,2.84-.14,4.46,1.14,5.14,3.89,.11,.46,.29,.9,.49,1.54,1.1-1.21,2.1-2.32,3.1-3.41,2.39-2.61,5.35-3.8,8.84-3.11,4.96,.98,9.96,1.21,14.99,1.31,2.7,.06,4.83,1.48,6.69,3.32,1-.78,1.85-1.7,2.9-2.19,1.49-.69,3.12-1.46,4.71-1.51,4.94-.15,9.89,.1,14.84,.05,4.46-.04,7.69,2.01,10.41,5.37,4.54,5.6,6.02,12.26,6.73,19.14,.24,2.37-.27,4.84-1.94,6.72-.97,1.09-2.3,1.86-3.56,2.85,.97,1.55,2.19,3.23,3.12,5.05,3.09,6.05,3.69,12.53,2.66,19.13-.84,5.41-2.54,10.54-6.21,14.83-3.91,4.58-8.77,6.86-14.79,6.08-4.11-.53-8.21-1.24-12.24-2.19-2.12-.5-4.08-1.71-6.3-2.67-.22,.19-.66,.52-1.05,.91-4.37,4.22-9.47,5.37-15.24,3.6-2.89-.89-5.78-1.82-8.64-2.81-1.04-.36-1.93-.42-2.97,.06-3.3,1.54-6.9,1.98-10.44,2.51-3.84,.57-6.92-.77-8.79-4.58-.38,.32-.74,.49-.91,.77-1.83,3.05-4.8,3.67-7.92,3.28-5.29-.67-10.57-1.57-15.8-2.59-1.98-.39-3.83-1.38-5.92-2.17-2.04,2.11-5,2.89-8.18,3.08-9.57,.56-19.14,1.02-28.73,.53-5.72-.29-11.44-.7-17.17-.85-4.46-.12-8.93,.14-13.4,.1-2.4-.02-4.68,.25-6.94,1.15-1.39,.56-2.95,.67-4.42,1.04-3.32,.83-6.48,.71-9.39-1.68Zm-6.25-28.28c0-6.01,.01-12.01,.02-18.02,.27,.03,.53,.07,.8,.1,1.7,5.84,3.4,11.68,5.1,17.52,1.95,6.65,3.89,13.3,5.88,19.94,.26,.88,.82,1.68,1.15,2.34h9.08c.05-.62,.12-1.09,.13-1.56,.09-6.94,.17-13.88,.24-20.82,0-.63-.11-1.26-.17-1.89,.06-5.74,.12-11.48,.18-17.21,.03-6.7,.07-13.41,.07-20.11,0-.48-.29-.96-.48-1.55-2.54,.87-4.85,1.66-7.17,2.46-.05,.46-.1,.78-.11,1.09-.08,3.91-.14,7.81-.22,11.72-.04,2.31-.08,4.62-.13,6.94-.13,.94-.31,1.88-.37,2.82-.28,4.27-.52,8.54-.78,12.82-.6-.75-.9-1.6-1.17-2.46-1.31-4.27-2.61-8.54-3.91-12.81-.02-.24,0-.49-.06-.71-1.78-5.94-3.53-11.89-5.35-17.82-.97-3.16-1.02-3.14-4.27-3.89-.54-.12-1.07-.31-1.62-.38-1.86-.26-3.72-.48-5.7-.73-.11,.77-.24,1.22-.23,1.68,.22,7.49,.46,14.98,.71,22.46,.01,.31,.13,.62,.2,.93,.19,5.71,.38,11.41,.57,17.12-.07,7.3-.64,14.59-.56,21.95h8.18v-21.89Zm63.61-18.46V12.57c-3.11-.34-6.07-.6-9.09-.47-.3,2.26-.67,4.3-.81,6.36-.28,4.29-.43,8.58-.63,12.88,.06,1.98,.04,3.98,.19,5.95,.34,4.54,.77,9.07,1.16,13.61,.07,1.35,.21,2.7,.19,4.05-.07,5.18-.15,10.37-.33,15.55-.11,3.14,.1,3.46,3.17,3.46,6.23,0,12.45,0,18.68,0,.95,0,1.9,0,3.12,0,.33-3.09-.18-6,.15-9.09-5.75-.13-10.32-.3-15.94-.43-.05-4.96-.09-9.72-.14-14.49,.09-5.51,.18-11.02,.28-16.53Zm71.16,1.66c-.02-.48,0-.96-.08-1.43-1.02-5.56-2.06-11.13-3.1-16.69-.3-1.6-.63-3.2-.93-4.74-3.74,.51-7.18,.99-10.86,1.49-.18,.86-.4,1.94-.62,3.02-1.27,6.09-2.54,12.17-3.81,18.26-.94,3.45-1.91,6.89-2.82,10.34-.49,1.84-.88,3.7-1.31,5.56-.97,3.25-1.93,6.5-3,10.09-1.48-4.03-2.83-7.72-4.18-11.41-.97-2.95-1.77-5.97-2.96-8.83-.95-2.28-1.31-4.34,.14-6.48,.15-.18,.33-.35,.44-.55,3.67-6.72,7.34-13.44,10.97-20.18,.28-.51,.31-1.16,.47-1.78-3.94-2.11-7.92-2.92-12.26-2.5-1.24,2.39-2.61,4.74-3.72,7.2-2.42,5.38-4.71,10.81-7.06,16.23-.15-.1-.29-.09-.42,.02V10.53c-3.11,.43-6.07,.83-9.15,1.25-.24,2.41-.42,4.71-.72,6.99-.67,5.15-1.04,10.31-.51,15.5,.12,2.2,.2,4.4,.39,6.6,.23,2.59,.56,5.16,.84,7.74,.03,1.28,.05,2.55,.08,3.83,.11,4.37,.77,8.73,.03,13.13-.35,2.1-.15,4.3-.19,6.45-.02,.95,.14,1.86,1.32,1.88,2.44,.05,4.89,.02,7.46,.02,.13-4.83,.44-9.37,.32-13.9-.11-4.08,.21-7.93,2.73-11.32,.5-.69,1.01-1.37,1.62-2.21,.45,1.03,.79,1.8,1.13,2.56,.46,1.52,.91,3.05,1.38,4.57,1.88,6.1,3.76,12.21,5.66,18.3,.62,1.98,.67,1.97,2.64,1.98,2.55,.02,5.11,.03,7.66,.04,1.41,0,2.83,0,4.28,0,1.28-5.33,1.54-10.6,2.95-15.63h10.45c.57,2.62,1.17,5.18,1.69,7.75,.52,2.56,.95,5.13,1.43,7.75h8.71c0-.61,.07-1.1-.01-1.55-.78-4.4-1.56-8.79-2.4-13.18-.55-2.89-1.2-5.76-1.81-8.64-.33-2.11-.62-4.23-1.02-6.32-.57-3.02-1.23-6.03-1.85-9.04Zm-171.09-2.8c-.51,3.71-1.04,7.42-1.53,11.13-.29,2.2-.55,4.4-.82,6.6-.89,4.82-1.02,9.78-2.68,14.84-.37-1.01-.61-1.67-.85-2.33-1.55-4.34-3.11-8.68-4.66-13.03-1.08-3.23-2.05-6.51-3.28-9.69-.72-1.86-.81-3.44,.39-5.12,.67-.95,1.05-2.11,1.56-3.18,1.75-3.12,3.51-6.24,5.25-9.37,1.55-2.79,3.1-5.57,4.58-8.4,.48-.92,1.29-1.83,.88-3.05-2.87-.47-5.42,.6-8.06,1.09-2.33,.44-3.52,1.66-4.17,3.86-1.09,3.69-2.95,7.03-5.07,10.24-1.23,1.86-2.34,3.8-3.51,5.7-.87,1.26-1.74,2.52-2.9,4.19-.08-1.71-.14-2.87-.2-4.03,.04-2.23,.1-4.46,.11-6.69,.02-3.67,0-7.33,.02-11,0-.82,.04-1.71-.95-1.95-2.69-.65-5.41-.97-8.05-.51v21.45c.09,5.48,.19,10.95,.28,16.43,.02,8.1,.04,16.21,.06,24.47,2.98,.03,5.64,.11,8.49-.11,0-1.04,0-1.82,0-2.61,0-3.83,.17-7.67-.04-11.48-.21-3.94,.21-7.61,2.77-10.79,.09-.11,.1-.3,.14-.45,.45-.57,.9-1.13,1.46-1.85,.45,1.13,.8,2,1.15,2.87,2.59,8.18,5.16,16.37,8.15,24.44,2.53,0,4.76,.01,6.99,0,2.21-.02,4.42,.14,6.65-.09,.91-5.32,1.79-10.4,2.67-15.53h10.3c.21,1.14,.4,2.16,.57,3.17,.63,3.61,1.26,7.23,1.86,10.85,.14,.88,.42,1.57,1.43,1.58,2.77,.02,5.55,0,8.57,0-1.48-7.87-2.91-15.46-4.34-23.05-.97-5.36-1.94-10.72-2.91-16.08-1.32-7.17-2.65-14.34-4.02-21.77-4.18,.96-7.9-.47-11.84-1.18-1.68,5.59-2.98,11.07-4.03,16.61-.24,1.24-.29,2.52-.43,3.78Zm220.81-.16c-.96-2.55-1.06-5.14-.26-7.74,.91-2.95,3.73-4.29,6.4-3.13,1.65,.72,2.32,2.08,2.55,3.76,.2,1.46,.45,2.92,.67,4.26h8.84c-.08-4.56-1.15-8.66-3.28-12.5-1.76-3.18-4.39-4.84-8.01-4.58-2.85,.21-5.73,.5-8.51,1.12-3.23,.71-5.96,2.4-7.31,5.61-1.76,4.17-1.95,8.5-.82,12.88,.28,.99,.55,1.99,.85,2.97,.99,3.28,2.66,6.18,5.4,8.24,2.46,1.85,5.15,3.4,7.74,5.09,.41,.37,.81,.76,1.24,1.1,3.63,2.84,4.94,7.73,3.18,11.97-.96,2.3-3.04,3.46-5.83,3.25-2.34-.17-4.14-1.73-4.65-4.12-.28-1.3-.47-2.63-.73-4.15-2.78,.27-5.43,.52-8.32,.8,.14,4.66,.72,9.05,3.58,12.73,1.1,1.41,2.52,2.73,4.08,3.59,8.15,4.5,18.08,.55,21.06-8.26,1.44-4.27,1.24-8.64,.68-13.02-.11-.85-.49-1.67-.75-2.5-1.38-4.87-4.21-8.69-8.41-11.46-1.72-1.13-3.65-1.93-5.4-3.01-1.39-.87-2.66-1.94-3.98-2.92ZM105.79,49.49c-.07,.31-.19,.61-.21,.93-.48,7-.96,14.01-1.41,21.01-.05,.76,.06,1.53,.1,2.35h26.86c.38-3.12,.74-6.07,1.14-9.28-6.05-.45-11.8-.89-17.69-1.33v-12.69c.08-1.09,.16-2.19,.26-3.54,.99,0,1.85,0,2.7,0,3.43,0,6.87,.02,10.3-.02,2-.02,2.25-.3,2.08-2.24-.14-1.67-.39-3.33-.56-5-.2-1.96-.38-3.92-.58-6.06-4.82,.19-9.26,1.59-13.95,2.21-.09-1.14-.17-2.07-.25-3.01,.06-3.32,.12-6.64,.19-10.2h16.54c0-3.19,.02-6.13,0-9.07-.01-1.74-.09-1.83-1.87-2.09-4.1-.6-8.21-1.09-12.3-1.76-3.57-.59-7.13-.78-10.72-.44-.6,.06-1.18,.24-1.93,.39,.18,2.96,.32,5.74,.51,8.51,.32,4.69,.67,9.39,1,14.08,0,.94-.02,1.89,0,2.83,.06,2.13,.25,4.26,.21,6.38-.05,2.68-.27,5.35-.41,8.03ZM251.53,31.77c-.37-5.24-1.99-10.09-4.43-14.71-1.69-3.21-4.24-4.93-7.89-4.73-2.93,.16-5.87,.41-8.78,.83-3.29,.48-5.69,2.36-7.16,5.35-.49,1-.95,2.02-1.26,3.09-1.31,4.46-2.04,9-1.88,13.66,.2,4.89,.4,9.79,.6,14.68,.12,1.74,.17,3.49,.36,5.22,.51,4.62,1.34,9.15,3.72,13.25,1.57,2.71,3.65,4.89,6.68,5.86,5.28,1.68,12.36,.92,16.27-6.05,1-1.79,1.78-3.76,2.36-5.73,1.25-4.22,1.69-8.57,1.86-12.96,.31-5.93,.43-11.85-.45-17.75Z"/>
      <path class="cls-6" d="M32.23,49.49c1.55,4.34,3.11,8.69,4.66,13.03,.24,.66,.48,1.32,.85,2.33,1.66-5.06,1.79-10.02,2.68-14.85,4.75,.06,9.49-.07,14.19-.92,1.3-.23,2.72-.15,4.02,.09,2.48,.46,4.92,1.14,7.38,1.72,1.43,7.59,2.86,15.18,4.34,23.05-3.02,0-5.8,.01-8.57,0-1.01,0-1.29-.7-1.43-1.58-.6-3.62-1.23-7.23-1.86-10.85-.18-1.02-.37-2.03-.57-3.17h-10.3c-.88,5.14-1.76,10.22-2.67,15.53-2.22,.23-4.44,.07-6.65,.09-2.23,.02-4.46,0-6.99,0-3-8.06-5.56-16.25-8.15-24.44,2.12,.13,4.24,.31,6.36,.35,.91,.02,1.82-.25,2.73-.39Z"/>
      <path class="cls-20" d="M216.72,50.43c.61,2.88,1.25,5.75,1.81,8.64,.84,4.39,1.62,8.78,2.4,13.18,.08,.46,.01,.94,.01,1.55h-8.71c-.48-2.61-.92-5.19-1.43-7.75-.52-2.57-1.11-5.12-1.69-7.75h-10.45c-1.41,5.03-1.67,10.3-2.95,15.63-1.45,0-2.86,0-4.28,0-2.55,0-5.11-.02-7.66-.04-1.97-.01-2.02,0-2.64-1.98-1.91-6.09-3.78-12.2-5.66-18.3-.47-1.52-.92-3.04-1.38-4.57,3.02,.17,6.03,.34,9.05,.51,1.35,3.69,2.7,7.38,4.18,11.41,1.07-3.6,2.03-6.85,3-10.09,3.49,.17,6.99,.35,10.48,.51,5.34,.23,10.64-.17,15.92-.94Z"/>
      <path class="cls-8" d="M251.98,49.52c-.17,4.39-.62,8.74-1.86,12.96-.58,1.97-1.36,3.94-2.36,5.73-3.91,6.97-10.99,7.73-16.27,6.05-3.03-.97-5.11-3.15-6.68-5.86-2.38-4.1-3.21-8.63-3.72-13.25-.19-1.73-.25-3.48-.36-5.22,2.87-.32,5.75-.65,8.62-.97,.08,.7,.15,1.41,.24,2.11,.37,2.83,.68,5.67,1.15,8.48,.32,1.91,1.67,3.07,3.46,3.58,1.81,.52,3.31-.34,4.45-1.64,.66-.75,1.23-1.73,1.44-2.69,.69-3.09,1.2-6.22,1.78-9.33,3.37,.02,6.74,.03,10.11,.05Z"/>
      <path class="cls-8" d="M281.37,49.51c.26,.83,.64,1.65,.75,2.5,.56,4.38,.76,8.75-.68,13.02-2.97,8.8-12.91,12.76-21.06,8.26-1.55-.86-2.98-2.18-4.08-3.59-2.86-3.68-3.44-8.07-3.58-12.73,2.89-.28,5.55-.53,8.32-.8,.26,1.52,.45,2.84,.73,4.15,.52,2.38,2.31,3.94,4.65,4.12,2.79,.21,4.87-.95,5.83-3.25,1.76-4.24,.46-9.13-3.18-11.97-.44-.34-.83-.73-1.24-1.1,2.03,.11,4.07,.15,6.09,.36,2.49,.27,4.96,.68,7.44,1.04Z"/>
      <path class="cls-5" d="M220.13,35.25c-.16-4.66,.57-9.21,1.88-13.66,.31-1.06,.77-2.09,1.26-3.09,1.47-2.99,3.87-4.87,7.16-5.35,2.91-.42,5.84-.67,8.78-.83,3.64-.2,6.19,1.52,7.89,4.73,2.44,4.62,4.06,9.47,4.43,14.71-3.13,.68-6.26,1.37-9.39,2.05-.32-2.77-.58-5.56-.99-8.32-.3-1.98-1.47-3.37-3.46-3.86-2.18-.54-3.93,.15-5.14,2.11-.66,1.07-1.24,2.27-1.51,3.48-.61,2.71-1,5.48-1.48,8.22-3.15-.07-6.29-.14-9.44-.21Z"/>
      <path class="cls-19" d="M105.99,32.25c-.34-4.69-.68-9.39-1-14.08-.19-2.78-.33-5.55-.51-8.51,.74-.15,1.33-.33,1.93-.39,3.59-.34,7.15-.15,10.72,.44,4.09,.67,8.2,1.16,12.3,1.76,1.79,.26,1.86,.35,1.87,2.09,.02,2.94,0,5.88,0,9.07h-16.54c-.07,3.56-.13,6.88-.19,10.2-2.86-.19-5.72-.38-8.59-.58Z"/>
      <path class="cls-8" d="M114.57,50.48v12.69c5.89,.44,11.64,.88,17.69,1.33-.39,3.21-.75,6.16-1.14,9.28h-26.86c-.04-.82-.15-1.59-.1-2.35,.45-7.01,.93-14.01,1.41-21.01,.02-.31,.14-.62,.21-.93,.92,.15,1.83,.35,2.75,.45,2.01,.21,4.02,.37,6.03,.55Z"/>
      <path class="cls-3" d="M253.85,31.8c-1.13-4.38-.94-8.71,.82-12.88,1.35-3.21,4.08-4.9,7.31-5.61,2.79-.61,5.66-.91,8.51-1.12,3.62-.27,6.25,1.4,8.01,4.58,2.13,3.84,3.2,7.94,3.28,12.5h-8.84c-.21-1.34-.46-2.8-.67-4.26-.23-1.68-.91-3.05-2.55-3.76-2.67-1.16-5.5,.18-6.4,3.13-.8,2.59-.7,5.19,.26,7.74-1.03-.04-2.05-.09-3.08-.12-2.22-.07-4.43-.12-6.65-.19Z"/>
      <path class="cls-8" d="M142.41,49.94c.05,4.77,.09,9.53,.14,14.49,5.63,.13,10.4,.26,16.14,.4-.72,3.08,.03,6.02-.3,9.12-1.23,0-2.22,0-3.17,0-6.23,0-12.45,0-18.68,0-3.08,0-3.28-.32-3.17-3.46,.18-5.18,.25-10.37,.33-15.55,.02-1.35-.12-2.7-.19-4.04,2.97-.32,5.94-.63,8.91-.95Z"/>
      <path class="cls-21" d="M32.23,49.49c-.91,.14-1.82,.41-2.73,.39-2.12-.04-4.24-.22-6.36-.35-.35-.87-.7-1.74-1.15-2.87-.56,.71-1.01,1.28-1.46,1.85-1.33-.1-2.67-.4-3.97-.26-2.5,.28-4.97,.8-7.45,1.23-.09-5.48-.19-10.95-.28-16.43,2.96-.43,5.91-.87,8.87-1.3,.06,1.16,.11,2.31,.2,4.03,1.16-1.67,2.03-2.93,2.9-4.19,1.18,0,2.35,.03,3.53,.02,2.19-.02,4.38-.06,6.58-.1-.51,1.07-.88,2.23-1.56,3.18-1.2,1.68-1.11,3.26-.39,5.12,1.23,3.18,2.2,6.45,3.28,9.69Z"/>
      <path class="cls-2" d="M183.14,49.56c-3.02-.17-6.03-.34-9.05-.51-.34-.76-.67-1.53-1.13-2.56-.61,.84-1.12,1.52-1.62,2.21-3.91-.03-7.83-.06-11.74-.09-.29-2.58-.62-5.16-.84-7.74-.19-2.19-.26-4.4-.39-6.6,3.46-.53,6.92-1.06,10.38-1.59,.14-.12,.28-.12,.42-.02,3.72,.53,7.44,1.06,11.16,1.59-1.45,2.13-1.08,4.2-.14,6.48,1.19,2.86,1.99,5.88,2.96,8.83Z"/>
      <path class="cls-11" d="M114.57,50.48c-2.01-.18-4.02-.34-6.03-.55-.92-.1-1.84-.29-2.75-.45,.15-2.68,.37-5.35,.41-8.03,.04-2.12-.15-4.25-.21-6.38-.03-.94,0-1.89,0-2.83,2.86,.19,5.72,.38,8.59,.58,.08,.94,.15,1.87,.25,3.01,4.7-.62,9.13-2.02,13.95-2.21,.2,2.14,.38,4.1,.58,6.06,.17,1.67,.42,3.33,.56,5,.17,1.94-.08,2.22-2.08,2.24-3.43,.04-6.86,.02-10.3,.02-.86,0-1.72,0-2.7,0-.1,1.35-.18,2.45-.26,3.54Z"/>
      <path class="cls-5" d="M42.76,32.27c.14-1.26,.2-2.54,.43-3.78,1.05-5.54,2.36-11.02,4.03-16.61,3.93,.72,7.65,2.14,11.84,1.18,1.37,7.42,2.7,14.6,4.02,21.76-2.8-.17-5.6-.34-8.4-.51-.82-2.79-.51-5.81-1.64-8.91-.54,3.13-1.01,5.84-1.48,8.55-2.93-.57-5.87-1.13-8.8-1.7Z"/>
      <path class="cls-10" d="M216.72,50.43c-5.28,.77-10.58,1.18-15.92,.94-3.49-.15-6.99-.34-10.48-.51,.43-1.85,.83-3.72,1.31-5.56,.91-3.45,1.88-6.89,2.82-10.34,2.61-.03,5.22-.05,7.83-.08-.51,3.51-1.02,7.02-1.53,10.56h5.79c-.44-3.68-.85-7.13-1.27-10.59,2.86,.07,5.72,.13,8.58,.2,.62,3.01,1.28,6.02,1.85,9.04,.4,2.1,.68,4.22,1.02,6.32Z"/>
      <path class="cls-9" d="M70.89,34.69c-.07-.31-.19-.62-.2-.93-.25-7.49-.49-14.97-.71-22.46-.01-.45,.12-.91,.23-1.68,1.98,.25,3.84,.48,5.7,.73,.55,.08,1.08,.26,1.62,.38,3.25,.74,3.3,.73,4.27,3.89,1.82,5.93,3.58,11.87,5.35,17.82,.07,.22,.04,.47,.06,.71-2.44,.26-4.89,.53-7.33,.79-.27-.03-.53-.07-.8-.1-2.73,.28-5.47,.57-8.2,.85Z"/>
      <path class="cls-23" d="M213.85,35.07c-2.86-.07-5.72-.13-8.59-.2-.39-2.82-.78-5.63-1.23-8.84-.18,.73-.28,1.08-.35,1.45-.47,2.47-.94,4.95-1.41,7.43-2.61,.03-5.22,.05-7.83,.08,1.27-6.09,2.54-12.17,3.81-18.26,.22-1.08,.44-2.15,.62-3.02,3.67-.51,7.12-.98,10.86-1.49,.3,1.54,.63,3.14,.93,4.74,1.04,5.56,2.08,11.12,3.1,16.69,.09,.47,.06,.95,.08,1.43Z"/>
      <path class="cls-5" d="M180.32,34.25c-3.72-.53-7.44-1.06-11.16-1.59,2.35-5.41,4.64-10.85,7.06-16.23,1.11-2.46,2.48-4.81,3.72-7.2,4.35-.41,8.32,.39,12.26,2.5-.16,.62-.19,1.27-.47,1.78-3.64,6.74-7.31,13.46-10.97,20.18-.11,.2-.29,.37-.44,.55Z"/>
      <path class="cls-22" d="M101.3,49.47c.06,.63,.17,1.26,.17,1.89-.07,6.94-.15,13.88-.24,20.82,0,.47-.07,.94-.13,1.56h-9.08c-.33-.66-.89-1.46-1.15-2.34-1.99-6.64-3.93-13.29-5.88-19.94,2.6-.33,5.2-.67,7.8-.99,2.84-.35,5.68-.67,8.52-1Z"/>
      <path class="cls-18" d="M54.69,34.32c2.8,.17,5.6,.34,8.4,.51,.97,5.36,1.94,10.72,2.91,16.08-2.46-.59-4.9-1.27-7.38-1.72-1.31-.24-2.72-.32-4.02-.09-4.7,.85-9.44,.98-14.19,.92,.27-2.2,.53-4.4,.82-6.6,.5-3.71,1.02-7.42,1.53-11.13,2.93,.57,5.87,1.13,8.8,1.7-.62,4.06-1.25,8.11-1.9,12.34,2.29,.18,4.3,.34,6.53,.52-.13-1.11-.22-1.96-.32-2.81-.39-3.23-.79-6.46-1.19-9.69Z"/>
      <path class="cls-14" d="M101.3,49.47c-2.84,.33-5.68,.65-8.52,1-2.6,.32-5.2,.66-7.8,.99-1.7-5.84-3.4-11.68-5.1-17.52,2.44-.26,4.89-.52,7.33-.79,1.3,4.27,2.6,8.54,3.91,12.81,.27,.86,.57,1.72,1.17,2.46,.26-4.27,.5-8.55,.78-12.82,.06-.95,.25-1.88,.37-2.82,2.68-.18,5.36-.35,8.03-.53-.06,5.74-.12,11.48-.18,17.21Z"/>
      <path class="cls-10" d="M253.85,31.8c2.22,.06,4.43,.12,6.65,.19,1.03,.03,2.05,.08,3.08,.12,1.32,.98,2.59,2.05,3.98,2.92,1.75,1.09,3.68,1.88,5.4,3.01,4.2,2.77,7.03,6.59,8.41,11.46-2.48-.35-4.95-.77-7.44-1.04-2.02-.22-4.06-.25-6.09-.36-2.59-1.68-5.28-3.23-7.74-5.09-2.74-2.06-4.41-4.97-5.4-8.24-.3-.99-.57-1.98-.85-2.97Z"/>
      <path class="cls-4" d="M159.6,48.61c3.91,.03,7.83,.06,11.74,.09-2.51,3.39-2.84,7.24-2.73,11.32,.12,4.53-.19,9.07-.32,13.9-2.57,0-5.02,.04-7.46-.02-1.18-.03-1.34-.93-1.32-1.88,.05-2.15-.16-4.35,.19-6.45,.74-4.4,.08-8.76-.03-13.13-.03-1.28-.05-2.55-.08-3.83Z"/>
      <path class="cls-5" d="M168.74,32.68c-3.46,.53-6.92,1.06-10.38,1.59-.53-5.19-.16-10.34,.51-15.5,.3-2.28,.48-4.58,.72-6.99,3.08-.42,6.04-.83,9.15-1.25v22.14Z"/>
      <path class="cls-4" d="M9.11,49.48c2.48-.42,4.95-.95,7.45-1.23,1.3-.14,2.65,.16,3.97,.26-.05,.15-.05,.33-.14,.45-2.55,3.18-2.98,6.85-2.77,10.79,.21,3.82,.04,7.66,.04,11.48,0,.78,0,1.57,0,2.61-2.85,.22-5.5,.15-8.49,.11-.02-8.27-.04-16.37-.06-24.47Z"/>
      <path class="cls-13" d="M132.15,31.33c.2-4.29,.36-8.59,.63-12.88,.13-2.05,.51-4.09,.81-6.36,3.02-.12,5.99,.13,9.09,.47,0,7,0,13.92,0,20.84-2.27-.15-4.66,.21-6.7-1.12-1.2-.79-2.46-1.02-3.83-.96Z"/>
      <path class="cls-23" d="M30.89,31.5c-2.19,.03-4.38,.08-6.58,.1-1.18,.01-2.35-.01-3.53-.02,1.16-1.9,2.28-3.84,3.51-5.7,2.12-3.21,3.98-6.55,5.07-10.24,.65-2.2,1.84-3.42,4.17-3.86,2.64-.5,5.19-1.56,8.06-1.09,.41,1.22-.4,2.13-.88,3.05-1.47,2.83-3.03,5.61-4.58,8.4-1.74,3.13-3.5,6.24-5.25,9.37Z"/>
      <path class="cls-7" d="M17.69,31.75c-2.96,.43-5.91,.87-8.87,1.3,0-7.08,0-14.16,0-21.45,2.64-.46,5.36-.14,8.05,.51,.99,.24,.95,1.13,.95,1.95-.01,3.67,0,7.33-.02,11-.01,2.23-.07,4.46-.11,6.69Z"/>
      <path class="cls-12" d="M132.15,31.33c1.37-.06,2.63,.17,3.83,.96,2.04,1.33,4.43,.97,6.7,1.12-.09,5.51-.19,11.03-.28,16.54-2.97,.32-5.94,.63-8.91,.95-.39-4.54-.82-9.07-1.16-13.61-.15-1.98-.13-3.97-.19-5.95Z"/>
      <path class="cls-20" d="M79.08,51.86v21.89h-8.18c-.08-7.36,.49-14.65,.56-21.95,2.54,.02,5.08,.04,7.62,.05Z"/>
      <path class="cls-21" d="M242.15,33.82c3.13-.68,6.26-1.37,9.39-2.05,.88,5.9,.76,11.82,.45,17.75-3.37-.01-6.74-.03-10.11-.05,.07-2.13,.17-4.26,.21-6.4,.05-3.09,.05-6.17,.07-9.26Z"/>
      <path class="cls-1" d="M101.48,32.26c-2.68,.18-5.36,.35-8.03,.53,.04-2.31,.08-4.62,.13-6.94,.07-3.91,.14-7.81,.22-11.72,0-.31,.06-.62,.11-1.09,2.31-.79,4.63-1.59,7.17-2.46,.19,.6,.48,1.07,.48,1.55,0,6.7-.04,13.41-.07,20.11Z"/>
      <path class="cls-2" d="M79.08,51.86c-2.54-.02-5.08-.04-7.62-.05-.19-5.71-.38-11.41-.57-17.12,2.73-.28,5.47-.57,8.2-.85,0,6.01-.01,12.01-.02,18.02Z"/>
      <path class="cls-2" d="M220.13,35.25c3.15,.07,6.29,.14,9.44,.21-.07,4.5-.15,9-.22,13.5-2.87,.32-5.75,.65-8.62,.97-.2-4.89-.4-9.79-.6-14.68Z"/>
      <path class="cls-15" d="M229.35,48.96c.07-4.5,.15-9,.22-13.5,.48-2.74,.87-5.51,1.48-8.22,.27-1.22,.86-2.41,1.51-3.48,1.2-1.96,2.96-2.65,5.14-2.11,1.98,.49,3.16,1.88,3.46,3.86,.41,2.76,.67,5.54,.99,8.32-.02,3.09-.02,6.17-.07,9.26-.03,2.13-.14,4.26-.21,6.4-.58,3.11-1.08,6.24-1.78,9.33-.22,.96-.79,1.94-1.44,2.69-1.14,1.3-2.64,2.16-4.45,1.64-1.79-.51-3.14-1.67-3.46-3.58-.47-2.81-.78-5.65-1.15-8.48-.09-.7-.16-1.4-.24-2.11Z"/>
      <path class="cls-17" d="M54.69,34.32c.4,3.23,.79,6.46,1.19,9.69,.1,.85,.2,1.71,.32,2.81-2.23-.18-4.24-.34-6.53-.52,.65-4.23,1.27-8.28,1.9-12.34,.47-2.71,.94-5.43,1.48-8.56,1.13,3.1,.82,6.12,1.64,8.91Z"/>
      <path class="cls-17" d="M202.28,34.9c.47-2.48,.93-4.95,1.41-7.43,.07-.36,.17-.72,.35-1.45,.45,3.21,.84,6.02,1.23,8.84,.41,3.46,.83,6.91,1.27,10.59h-5.79c.51-3.54,1.02-7.05,1.53-10.56Z"/>
    </g>
  </g>
</svg>