<?xml version="1.0" encoding="UTF-8"?>
<svg id="Vrstva_2" data-name="Vrstva 2" xmlns="http://www.w3.org/2000/svg" viewBox="0 0 524.72 254.17">
  <defs>
    <style>
      .cls-1 {
        fill: #f6f6f6;
      }
    </style>
  </defs>
  <g id="Vrstva_1-2" data-name="Vrstva 1">
    <g>
      <path class="cls-1" d="M524.72,254.17c-8.13-.96-15.95-1.88-23.78-2.82-33.65-4.06-67.3-8.09-100.94-12.22-36.92-4.54-73.82-9.18-110.73-13.76-13.28-1.65-26.58-3.13-39.84-4.97-1.29-.18-2.45-2.2-3.41-3.56-.39-.56-.07-1.61-.07-2.44,0-58.44,.05-116.87-.1-175.31-.01-4.52,1.26-5.66,5.77-6.16,26.78-2.99,53.51-6.48,80.27-9.74,23.14-2.83,46.29-5.55,69.42-8.4,25.27-3.11,50.52-6.33,75.78-9.47,14.44-1.79,28.89-3.53,43.34-5.25,1.29-.15,2.62-.02,4.28-.02V254.17ZM294.35,106.26c-4.62-4.17-11.25-5.74-17.2-3.99-4.9,1.44-8.78,4.12-9.55,9.59-.86,6.11,1.2,9.73,7.15,12.79,2.8,1.44,5.78,2.51,8.62,3.86,2.93,1.4,5.24,3.48,3.76,7.02-1.49,3.57-4.61,4.67-8.2,3.39-2.9-1.03-5.64-2.51-8.79-3.95-1.38,1.51-3,3.3-4.75,5.22,5.28,5.12,11.2,7.14,18.01,6.51,6.21-.57,11.45-5.2,12.64-10.98,1.1-5.39-1.35-10.21-7.21-13.42-3.04-1.66-6.51-2.58-9.44-4.4-1.55-.96-3.52-3.38-3.22-4.65,.37-1.57,2.86-3.62,4.51-3.69,3.28-.16,6.62,.9,10.29,1.51,.94-1.35,2.16-3.1,3.38-4.83Zm66.92,9.75c-4.2,0-7.97,.72-11.33-.16-6.04-1.58-11.19-.81-15.57,3.54-4.78,4.75-5.91,10.57-3.87,16.89,1.9,5.86,6.1,9.85,12.16,10.26,6.11,.41,12.31-.6,18.61-1v-29.54Zm125.8,29.85c0-6,.63-11.84-.13-17.5-1.51-11.12-9.22-15.5-19.65-11.93-.81,.28-1.77,.31-2.64,.21-2.46-.27-4.91-.66-7.56-1.03v30.18h7.38c.24-.62,.45-.93,.46-1.24,.05-4.98-.16-9.97,.22-14.92,.14-1.88,1.15-4.29,2.59-5.36,4.97-3.72,10.55-1.08,10.93,5.13,.33,5.4,.07,10.83,.07,16.45h8.33Zm-53.49,.9c9.29,0,16.37-6.83,16.33-15.76-.04-8.87-7.25-15.94-16.27-15.96-9.1-.02-16.18,6.93-16.2,15.9-.02,9.16,6.77,15.81,16.15,15.82Zm-118.19-24.3h9.44v-6.42c-3.1-.17-6.02-.32-9.17-.49-.21-2.95-.4-5.66-.59-8.38h-8.08c-.18,2.95-.35,5.67-.52,8.45-2.72,.13-5,.24-7.41,.36v6.39c2.66,.17,4.93,.31,8,.51,0,4.47-.48,8.81,.1,13,1.3,9.36,8.09,13.07,18.51,9.54-1.47-2.12-2.76-5.58-4.06-5.58-5.47,0-6.42-2.89-6.23-7.31,.13-3.11,.02-6.23,.02-10.07Zm69.1,.34c3.72-.19,6.63-.34,9.46-.49v-6.66h-9.26c-.18-3.04-.33-5.62-.49-8.43h-7.61c-.21,2.88-.39,5.48-.59,8.27-2.93,.22-5.63,.43-8.15,.62v6.32c2.94,.14,5.5,.26,8.45,.39,0,3.78,0,7.07,0,10.36,0,11.04,5.99,15.55,17.59,12.75-.33-1.99-.67-4.01-1.01-6.08-3.47-.72-8.06,.92-8.34-4.43-.21-4.09-.04-8.2-.04-12.61Zm18.03-6.76v29.65h7.54v-29.65h-7.54Zm3.95-6.15c3.31-.16,5.77-1.95,4.95-5.16-.5-1.97-3.04-4.35-5.05-4.78-3.13-.68-5.41,1.92-5.39,4.98,.02,3.02,1.94,5.17,5.49,4.96Z"/>
      <path class="cls-1" d="M211.21,144.62v16.09h-7.82v-44.16c5.81-.52,11.38-1.39,16.96-1.42,6.42-.03,11.03,3.42,13.38,9.37,2.51,6.36,1.8,12.56-2.89,17.61-4.14,4.46-9.58,5.73-15.54,4-1.23-.36-2.41-.88-4.08-1.5Zm-.08-13.43c.01,5.05,3,8.3,7.62,8.3,4.33,0,8.09-3.92,8.08-8.41-.01-4.7-3.54-8.48-7.93-8.48-5.08,0-7.78,2.98-7.77,8.59Z"/>
      <path class="cls-1" d="M0,140.1c1.97-1.96,3.59-3.58,5.06-5.05,3.16,1.42,5.9,2.84,8.78,3.89,3.66,1.33,6.77,0,8.23-3.42,1.43-3.37-.64-5.63-3.76-6.99-3.03-1.33-6.11-2.59-9.06-4.09-4.65-2.36-7.64-5.98-7.01-11.47,.63-5.5,3.89-8.99,9.25-10.44,6.43-1.75,12.35-.88,17.91,3.42-1.38,2.01-2.57,3.75-3.61,5.26-3.39-.69-6.59-1.99-9.66-1.72-1.91,.17-3.61,2.7-5.4,4.17,1.3,1.52,2.34,3.47,3.96,4.46,2.66,1.63,5.77,2.51,8.56,3.96,6.45,3.33,8.72,8.01,7.35,14.66-1.04,5.06-6.36,9.43-12.35,9.97-6.81,.62-12.69-1.5-18.25-6.61Z"/>
      <path class="cls-1" d="M96.13,145.51c-5.93,.43-11.57,1.19-17.21,1.15-6.42-.04-11.17-3.54-13.24-9.5-2.17-6.23-1.68-12.58,3.23-17.59,4.42-4.52,9.8-5.32,16.01-3.73,3.41,.87,7.22,.16,11.2,.16v29.51Zm-7.88-14.05c.04-5.98-2.17-8.66-7.29-8.87-4.41-.18-7.9,3.4-7.99,8.18-.09,4.91,3.57,8.87,8.05,8.71,4.61-.17,7.21-3.05,7.24-8.01Z"/>
      <path class="cls-1" d="M163.94,115.97h8.32c0,5.52-.33,10.94,.08,16.31,.52,6.75,5.46,9.22,10.55,5.38,1.29-.97,2.15-3.21,2.24-4.92,.28-5.42,.1-10.87,.1-16.62h8.1v29.23c-.2,.12-.62,.58-1.03,.58-4.84-.04-9.61,.03-14.49,.62-7.64,.92-12.94-4.89-13.83-13.68-.13-1.31-.05-2.65-.05-3.98,0-4.12,0-8.25,0-12.91Z"/>
      <path class="cls-1" d="M138.81,122.78c-3.29-.15-5.74-.26-8.52-.38v-6.29c2.58-.2,5.3-.4,8.25-.62,.19-2.81,.36-5.4,.55-8.27h7.6c.16,2.82,.3,5.4,.46,8.32,3.19,.18,6.25,.35,9.51,.53v6.4h-9.69c0,4.66-.85,9.15,.32,13.04,.71,2.35,4.56,3.76,6.99,5.6,.33-.39,.65-.77,.98-1.16,.18,.62,.44,1.23,.53,1.86,.2,1.28,.3,2.58,.44,3.82-9.5,3.74-17.36-1.35-17.42-11.1-.02-3.77,0-7.55,0-11.73Z"/>
      <path class="cls-1" d="M41.85,122.78c-3.11-.14-5.56-.25-8.38-.38v-6.41c2.45-.12,5.03-.24,7.98-.38,.25-2.8,.5-5.51,.77-8.45h7.56c.15,2.75,.3,5.46,.48,8.64h9.75v6.72h-9.95c0,4.58-.2,8.69,.05,12.77,.32,5.24,4.67,4.06,8.42,4.39,.34,2.09,.66,4.12,.98,6.09-10.92,3.43-18.62-2.72-17.71-12.02,.33-3.43,.05-6.92,.05-10.95Z"/>
      <path class="cls-1" d="M125.37,113.9c-.46,4.12-.69,6.23-.95,8.49-1.59,.14-3.11,.05-4.47,.45-3.6,1.06-6.12,2.92-5.89,7.34,.27,5.08,.06,10.19,.06,15.6h-8.37v-30c6.41,.16,12.75,1.56,19.61-1.88Z"/>
      <path class="cls-1" d="M24.42,66.9c6.41,.17,12.9-1.52,16.67,4.85,2.33,3.93,2.3,8.42-.49,12.19-4.15,5.61-10.29,3.77-16.19,4.11v-21.15Zm4.24,17.34c3.67,.38,7.22,.3,8.73-3.17,.91-2.09,.86-5.27-.1-7.33-1.59-3.44-5.06-3.59-8.63-2.71v13.22Z"/>
      <path class="cls-1" d="M61.83,66.3c.96,1.01,2.7,1.99,2.73,3.04,.14,4.11,.14,8.31-.54,12.35-.77,4.59-5.02,7.34-9.5,6.92-5.08-.48-8.11-3.65-8.26-8.8-.1-3.31-.15-6.64,.06-9.95,.06-1.01,1.05-1.96,1.62-2.93,.71,1.03,1.92,2.01,2.03,3.11,.29,2.96,0,5.97,.15,8.94,.16,3.39,1.76,5.96,5.45,5.74,3.3-.2,4.79-2.51,4.72-5.85-.08-3.79-.02-7.59-.02-11.38,.52-.4,1.05-.8,1.57-1.2Z"/>
      <path class="cls-1" d="M6.48,83.65c1.51,.16,3.03,.51,4.52,.42,1.75-.1,3.48-.59,5.22-.92-1.01-1.42-1.83-3.04-3.06-4.23-1.83-1.74-4.84-2.82-5.66-4.86-.63-1.58,.8-5.49,2.24-6.06,2.6-1.03,5.88-.39,8.87-.29,.22,0,.71,1.86,.53,1.97-.82,.51-1.81,.84-2.78,.96-1.81,.23-3.65,.28-5.48,.4-.08,.57-.16,1.14-.23,1.72,1.61,.97,3.16,2.06,4.84,2.9,4.89,2.42,6.45,5.2,4.76,8.76-1.82,3.83-6.19,5.18-10.64,3.19-1.19-.53-2.25-1.35-3.37-2.03l.24-1.93Z"/>
      <path class="cls-1" d="M79.25,76.52c-3.47,.96-6.94,1.93-10.41,2.89l-.3-.78c3.6-1.46,7.19-2.92,10.79-4.38-.31,.6-.63,1.19-.94,1.79,1.59,.96,3.55,1.62,4.67,2.97,1.38,1.65,2.66,3.84,2.79,5.87,.07,1.07-2.28,2.96-3.79,3.29-2.4,.51-5.72,.62-5.85-2.98-.08-2.04,1.4-4.16,2.29-6.2,.14-.32,.85-.4,1.29-.59-.18-.62-.36-1.25-.54-1.87Z"/>
      <path class="cls-1" d="M85,75.04c4.44-4.65,9.75-3.43,13.69,3.12-8.25,2.69-10.28,2.23-13.69-3.12Z"/>
      <path class="cls-1" d="M77.6,71.35c3.33-2.69,6.67-5.38,10-8.08-1.72,7.35-3.32,8.78-8.72,9.42-.43-.45-.86-.89-1.29-1.34Z"/>
      <path class="cls-1" d="M353.35,130.84c.02,5.32-2.58,8.44-7.2,8.63-4.37,.18-8.49-4.02-8.4-8.57,.09-4.57,3.74-8.34,8.07-8.31,4.83,.03,7.52,2.97,7.54,8.25Z"/>
      <path class="cls-1" d="M441.47,130.96c0,4.48-3.74,8.51-7.87,8.51-4.18,0-7.87-3.97-7.89-8.47-.02-4.63,3.48-8.38,7.85-8.41,4.33-.03,7.92,3.77,7.91,8.36Z"/>
    </g>
  </g>
</svg>