<?xml version="1.0" encoding="utf-8"?>
<!-- Generator: Adobe Illustrator 26.5.0, SVG Export Plug-In . SVG Version: 6.00 Build 0)  -->
<svg version="1.1" id="Vrstva_1" xmlns="http://www.w3.org/2000/svg" xmlns:xlink="http://www.w3.org/1999/xlink" x="0px" y="0px"
	 viewBox="0 0 337.6 287.8" style="enable-background:new 0 0 337.6 287.8;" xml:space="preserve">
<style type="text/css">
	.st0{fill:#FBFAEB;}
	.st1{fill:#36070A;}
	.st2{fill:#C9793B;}
	.st3{fill:#95361A;}
	.st4{fill:#CEBEA3;}
	.st5{fill:#C9B597;}
</style>
<g>
	<path class="st0" d="M333,91.6c0,12.2-3.3,23.4-10.6,33.2c-3,4-6.5,7.6-10.7,10.4c-7,4.6-14.2,8.9-21.3,13.4
		c-5.7,3.5-11.3,7.1-17.1,10.6c-8.8,5.3-17.7,10.4-26.4,15.7c-13.1,8-26.2,16.1-39.3,24c-11.9,7.2-23.9,14.1-35.9,21.3
		c-3.9,2.3-7.4,5.2-11.2,7.6c-10.5,6.3-21.1,12.3-31.6,18.5c-4.8,2.8-9.7,5.3-13.9,9c-6.7,5.8-14.6,9.6-23.2,11.6
		c-10.3,2.5-20.4,1.2-30.5-2.1c-12.1-3.9-22.2-10.8-30.6-20.1c-10.2-11.4-17.3-24.5-19.2-40c-0.5-4.3-1.3-8.5-1.3-12.8
		c0-13.6,3.5-26.2,12.1-36.9c3.9-4.8,8.5-9.1,13-13.4c4.8-4.7,11.2-7,16.8-10.5c2-1.2,3.8-2.7,5.9-3.8c2.6-1.4,5.4-2.3,8-3.8
		c14.9-8.4,29.8-16.8,44.7-25.2c10.1-5.7,20.2-11.4,30.4-17c11.1-6.1,22.2-12.1,33.3-18.2c10-5.5,20-11.2,30-16.8
		c4.1-2.3,8.1-4.5,12.2-6.8c7.7-4.2,15.3-8.5,23.1-12.6c6.2-3.3,12.9-5.4,19.8-6.7c8-1.4,15.8-0.5,23.5,1.9
		c8.7,2.6,16.3,7.1,23.2,12.8c5.9,4.9,10.8,10.7,14.9,17c6.3,9.5,10.6,19.9,11.3,31.5C332.5,86.1,332.8,88.9,333,91.6z M271.9,28
		c-13.3-0.1-21.7,2.4-29.5,6.7C227.2,43,212.1,51.5,197,59.9c-19.2,10.6-38.4,21.1-57.5,31.8c-20.7,11.5-41.3,23.2-62,34.7
		c-8.5,4.7-16.9,9.5-25.5,14.1c-9.3,5-17.8,10.8-23.9,19.7c-6.3,9.2-9.5,19.3-9.9,30.3c-0.6,14.7,3.3,28.2,11.5,40.4
		c9.7,14.3,22.6,23.9,39.6,27.5c13.4,2.8,25.7,0.4,36.9-7.5c4.2-2.9,8.3-5.9,12.7-8.5c16.9-10.2,33.8-20.2,50.7-30.4
		c15.7-9.5,31.4-19.1,47.1-28.6c11.7-7.1,23.4-14.2,35.1-21.3c16.5-9.9,33.1-19.8,49.6-29.6c5-3,9.5-6.5,12.8-11.2
		c2.3-3.3,4-7.1,6.1-10.6c3.1-5,4.1-10.8,4.4-16.4c0.9-20.3-6.3-37.5-21.2-51.3C293.4,33.9,281.6,28.2,271.9,28z"/>
	<path class="st1" d="M271.9,28c9.7,0.2,21.5,5.9,31.6,15.2c14.8,13.8,22,31,21.2,51.3c-0.2,5.6-1.3,11.3-4.4,16.4
		c-2.1,3.5-3.8,7.2-6.1,10.6c-3.3,4.7-7.8,8.3-12.8,11.2c-16.6,9.8-33.1,19.7-49.6,29.6c-11.7,7-23.4,14.2-35.1,21.3
		c-15.7,9.5-31.4,19.1-47.1,28.6c-16.9,10.2-33.8,20.2-50.7,30.4c-4.3,2.6-8.5,5.6-12.7,8.5c-11.2,7.9-23.5,10.3-36.9,7.5
		c-17.1-3.6-30-13.3-39.6-27.5c-8.3-12.2-12.1-25.7-11.5-40.4c0.4-11,3.6-21.1,9.9-30.3c6.1-8.9,14.6-14.7,23.9-19.7
		c8.6-4.6,17-9.4,25.5-14.1c20.7-11.6,41.3-23.2,62-34.7c19.1-10.7,38.4-21.2,57.5-31.8c15.2-8.4,30.2-16.9,45.4-25.3
		C250.2,30.4,258.6,27.9,271.9,28z M100.7,155.5c0.2,0.2,0.3,0.3,0.5,0.5l0,0c0.7,0.8,1.1,2.4,2.7,1.4c2.2-0.8,4.4-1.7,6.6-2.5
		c6.5-2.4,13-4.9,19.6-7.3c0.9,0.1,1.9,0.1,2.8,0.3c0.8,0.3,1.5,0.9,2.2,1.3c-4.8,2.7-9.6,5.3-14.4,8.1c-3.6,2.1-7.1,4.2-10.6,6.4
		c-1.1,0.7-1.3,1.5-0.3,2.8c1.7,2.1,3.4,4.4,4.6,6.8c2.6,5.3,4.9,10.8,7.3,16.2c2,9.3,3.7,18.7,2.8,28.3c-1,4.4-2,8.7-3.1,13.6
		c1.3-0.6,2.4-1.2,3.5-1.7l0,0c0.9-0.5,1.8-0.9,2.7-1.4l0,0c0.3-0.2,0.6-0.3,0.9-0.5c0,0,0,0,0,0c0.2-0.1,0.4-0.3,0.5-0.4
		c3.5-2,7-4,10.5-6.1c15.1-9.1,30.1-18.2,45.2-27.4c6.5-3.9,12.9-7.9,19.3-11.9c0.6-0.4,1.2-0.7,1.8-1.1l0,0
		c0.5-0.3,0.9-0.6,1.4-0.9l0,0c2.1-1.2,4.3-2.4,6.3-3.7c16.6-10,33.2-20,49.7-30c11.4-6.9,22.8-13.7,34.2-20.7c3.1-1.9,6-4.3,9-6.5
		c4.2-4.3,7.2-9.2,9-14.9c2.7-9.1,2.2-18.2-0.2-27.3c-0.8-2.9-2.2-5.6-3.3-8.4c-0.2-0.8-0.3-1.6-0.7-2.3c-2.1-3.5-4-7.1-6.4-10.5
		c-2-2.9-4.2-5.9-7.7-7.3c-2.2-1.9-4.1-4.2-6.5-5.8c-9.8-6.3-20.4-8.8-31.9-6.3c-6.2,1.4-11.8,4.4-17.4,7.5
		c-23.1,12.8-46.2,25.5-69.3,38.3c-9.4,5.2-18.7,10.5-28,15.7c-9.5,5.3-19,10.5-28.5,15.8c-12,6.7-24.1,13.3-36.1,20
		c-3.8,2.1-7.5,4.4-11.2,6.5c3.3,0.7,6.3,1.3,9.3,1.9c2.7,1,5.5,2.1,8.2,3.1c0.2,0.1,0.5,0.3,0.7,0.4l0.1,0c0.7,0.3,1.4,0.6,2.1,0.9
		l0,0c0.2,0.2,0.3,0.3,0.5,0.5l0,0c1.5,0.9,3,1.8,4.5,2.7l0,0c0.2,0.2,0.3,0.3,0.5,0.5c0.2,0.1,0.5,0.3,0.7,0.4
		c0.2,0.2,0.4,0.3,0.6,0.5l-0.1,0c0.5,0.3,0.9,0.6,1.4,0.9l0,0c0.8,0.6,1.5,1.2,2.3,1.8l0,0c0.2,0.2,0.3,0.3,0.5,0.5l0,0
		c0.2,0.2,0.3,0.3,0.5,0.5l0,0c0.2,0.2,0.3,0.3,0.5,0.5l0,0C100.4,155.2,100.6,155.4,100.7,155.5L100.7,155.5z M36.8,228.5
		c1.7,2,3.3,4,5,5.9c3.1,2.8,6.3,5.5,9.4,8.3c0.4,0.3,0.8,0.7,1.2,1c6.6,4.4,14,6.8,21.9,7.7c17.3,2,34.8-7.9,40.9-26.2
		c2.2-6.6,1.7-13.3,1.7-20.1c0-0.3,0-0.5,0-0.8c0-0.2,0-0.4,0-0.6c-0.2-0.9-0.3-1.8-0.5-2.7c-0.8-3.3-1.6-6.5-2.4-9.8
		c-2.6-9.2-7.1-17.3-13.3-24.5c-8.1-9.4-18.4-15.3-30.3-18.2c-6-1.4-12.1-1.4-17.8,0.9c-14.9,6.1-23.4,17.4-26.2,33.2
		c-0.5,2.6-0.6,5.3-0.8,8c-0.6,11.1,1.6,21.6,6.9,31.4C33.9,224.2,35.3,226.3,36.8,228.5z"/>
	<path class="st2" d="M297.1,48.6c3.5,1.5,5.6,4.4,7.7,7.3c2.3,3.3,4.3,7,6.4,10.5c0.4,0.7,0.5,1.5,0.7,2.3c0,1,0,2.1-0.1,3.1
		c-0.2,5.8-2.5,10.6-7.3,13.9c-6.1,4.1-12.3,8.1-18.6,11.8c-7.5,4.5-15.1,8.6-22.6,13c-15.7,9-31.3,18.1-47,27
		c-9.8,5.6-19.7,11.1-29.6,16.6c-7.8,4.3-15.7,8.6-23.5,12.9c-1.3,0.7-2.6,1.6-4.4,2.7c1.5,0,2.4-0.1,3.3,0c0.9,0.1,1.7,0.4,2.6,0.7
		c-1,0-2.1,0-3.1,0.1c-0.4,0-0.8,0.1-1.3,0.1c-1.7,0.4-3.5,0.5-4.9,1.3c-6,3.3-11.9,6.9-17.9,10.4c-0.6,0.2-1.1,0.3-1.7,0.5
		c-4.7,2.2-9.4,4.4-14,6.7c-2.4-5.4-4.7-10.9-7.3-16.2c-1.2-2.4-2.9-4.6-4.6-6.8c-1-1.2-0.8-2.1,0.3-2.8c3.5-2.2,7-4.3,10.6-6.4
		c4.8-2.8,9.6-5.4,14.4-8.1c2.3-1.1,4.5-2.2,6.8-3.4c3.8-1.9,7.7-3.7,11.5-5.7c6.4-3.4,12.9-6.9,19.1-10.6c2.3-1.4,4.3-3.4,6.8-5.4
		c-5-1.2-8.9,0.3-12.5,2.1c-9.8,5.1-19.5,10.5-29.2,15.8c-2.5,1.8-5.1,3.7-7.6,5.5c-6.5,2.4-13,4.9-19.6,7.3
		c-2.2,0.8-4.4,1.7-6.6,2.5c-0.9-0.5-1.8-0.9-2.8-1.4c0,0,0,0,0,0c-0.2-0.2-0.3-0.3-0.5-0.5c0,0,0,0,0,0c-0.2-0.2-0.3-0.3-0.5-0.5
		c0,0,0,0,0,0c-0.2-0.2-0.3-0.3-0.5-0.5c0,0,0,0,0,0c-0.2-0.2-0.3-0.3-0.5-0.5c0,0,0,0,0,0c-0.2-0.2-0.3-0.3-0.5-0.5c0,0,0,0,0,0
		c-0.8-0.6-1.5-1.2-2.3-1.8c0,0,0,0,0,0c-0.5-0.3-0.9-0.6-1.4-0.9c0,0,0.1,0,0.1,0c-0.2-0.2-0.4-0.3-0.6-0.5
		c-0.2-0.1-0.5-0.3-0.7-0.4c-0.2-0.2-0.3-0.3-0.5-0.5c0,0,0,0,0,0c-0.8-2-2.5-2.6-4.5-2.7c0,0,0,0,0,0c-0.2-0.2-0.3-0.3-0.5-0.5
		c0,0,0,0,0,0c-0.7-0.3-1.4-0.6-2.1-0.9c0,0-0.1,0-0.1,0c-0.2-0.1-0.5-0.3-0.7-0.4c-2.7-1-5.5-2.1-8.2-3.1c5-2.9,10-5.8,15-8.6
		c10.8-6,21.7-11.9,32.6-17.8c1.1-0.6,2.5-0.6,3.8-1c-0.1,1.9,1,3.1,2.4,4.2c2,1.5,4.3,2,6.7,1.6c2.6-0.4,4.8-2.3,5.2-4.8
		c0.4-2.2-0.7-4.1-3.3-5.5c-0.2-0.1-0.5-0.3-0.7-0.5c0.2-2.5,2.4-3.2,4-4.1c12-6.8,24.1-13.6,36.2-20.3c7.8-4.4,15.5-8.8,23.3-13.1
		c8.6-4.7,17.3-9.2,25.9-13.8c7.7-4.2,15.3-8.6,23.1-12.6c6-3,12.2-5.4,19.1-5.7c8.5-0.4,15.9,2.6,23,6.9
		C294.8,47.7,296,48.1,297.1,48.6z M273.3,69.2c0.3-0.1,0.5-0.3,0.8-0.4c1.7-1.7,3.3-3.4,5-5.2c-0.1-0.2-0.2-0.3-0.4-0.5
		c-0.4,0.1-0.8,0.2-1.2,0.3c-8.3,2.4-15.6,7.2-23.3,11c-4.7,2.3-9.1,5.2-13.7,7.8c-2.3,1.3-4.8,2.4-7.2,3.6c-2,1.1-4,2.2-6,3.4
		c0.6,0.4,1.1,0.3,1.5,0.2c4.3-0.3,6.3,1.6,5.1,4.8c0,0-0.1,0.1-0.1,0.1c0,0,0.1-0.1,0.1-0.1c4.2-2.2,8.4-4.4,12.6-6.6
		c6.5-3.8,13.1-7.3,19.4-11.4C268.7,74.5,270.9,71.6,273.3,69.2C273.3,69.2,273.3,69.2,273.3,69.2z M251.3,93.6
		c-0.1-0.2-0.2-0.3-0.3-0.5c-5.9,0.8-11.3,3.2-16.5,5.8c-13,6.5-26,13.2-38.8,20c-5,2.7-9.5,6.2-14.3,9.3c0.1,0.3,0.3,0.6,0.4,0.8
		c1.2-0.3,2.5-0.4,3.7-0.8c10.9-3.2,20.5-9,30.4-14.3c9.3-5,18.5-10.2,27.7-15.4C246.3,97,248.8,95.2,251.3,93.6z M231.7,71.7
		c0.6-0.1,1.5-0.1,2.3-0.4c3.3-0.9,5.7-4.7,4.7-7.3c-1.1-2.6-4.5-3.9-7.6-3c-3.5,1.1-6.1,4.4-5.5,7.1
		C226.1,70.6,227.9,71.7,231.7,71.7z M298.1,72.9c0.1-2.8-2-4.9-4.9-4.9c-2.7,0-4.9,2-5,4.7c-0.1,2.9,2,5.4,4.7,5.4
		C295.8,78.2,297.9,76,298.1,72.9z M130.5,166.5c3.6,0,5.4-1.4,6-3.8c0.4-1.8,0.1-3.4-1.6-4.4c-1.8-1-4-0.4-5.9,1.6
		c-0.2,0.2-0.4,0.3-0.4,0.5c-0.4,1.3-1.4,2.9-0.9,3.7C128.2,165.3,129.8,166,130.5,166.5z M267.4,46.7c-2.8,0-4.9,1.8-4.9,4.3
		c0,2.1,1.5,3.6,3.6,3.7c2.9,0.1,5.8-2,5.7-4.1C271.8,48.6,269.7,46.7,267.4,46.7z M118.7,133.1c2.4,0,4.4-2,4.4-4.6
		c0-2-1.6-3.4-3.8-3.5c-2.6,0-4.9,1.9-4.9,4.2C114.3,131.4,116.2,133,118.7,133.1z M152.7,111.2c-1.8,0-3.5,1.7-3.6,3.7
		c-0.1,1.9,1.6,3.8,3.5,3.8c2.1,0,4-1.5,4.1-3.3C156.8,113.3,154.8,111.2,152.7,111.2z"/>
	<path class="st3" d="M164.7,170.5c-0.9-0.2-1.7-0.6-2.6-0.7c-0.9-0.1-1.7,0-3.3,0c1.8-1.1,3.1-2,4.4-2.7
		c7.8-4.3,15.7-8.6,23.5-12.9c9.9-5.5,19.8-11,29.6-16.6c15.7-9,31.3-18,47-27c7.5-4.3,15.2-8.5,22.6-13c6.3-3.8,12.6-7.7,18.6-11.8
		c4.8-3.3,7-8.1,7.3-13.9c0-1,0-2.1,0.1-3.1c1.1,2.8,2.5,5.5,3.3,8.4c2.5,9,3,18.2,0.2,27.3c-1.7,5.7-4.8,10.7-9,14.9
		c-0.2-0.4-0.4-1-0.6-1.1c-2.4-0.4-4.7-1.8-7.1,0.2c-1.1,0.9-2.5,1.7-3.7,2.4c-8.1,4.9-16.2,9.7-24.2,14.6c-6.7,4-13.3,8.2-20,12.2
		c-1.6,1-3.4,1.8-5.1,2.6c-0.1-0.1-0.1-0.1-0.2-0.2c-0.1-0.4-0.2-0.8-0.2-1.2c0.2-0.8,0.5-1.5,0.7-2.3c0.6-2.6-1.2-5.1-3.5-4.8
		c-2.5,0.3-5.6,3.1-5.8,5.6c-0.2,2.7,0.4,4,4,5.2c-2.4,1.8-4.6,3.9-7.1,5.4c-9,5.6-18.2,11-27.2,16.4c-0.1,0.1-0.2,0.3-0.2,0.5
		c1.5-0.1,2.9-0.2,4.3-0.2c0,0.2,0,0.5,0,0.7c-0.6,0.1-1.2,0.1-1.7,0.1c-0.6,1.7-1.1,3.2-1.6,4.7c0,0,0,0,0,0
		c-0.5,0.3-0.9,0.6-1.4,0.9c0,0,0,0,0,0c-0.6,0.4-1.2,0.7-1.8,1.1c-6.4,4-12.9,8-19.3,11.9c-15.1,9.1-30.1,18.3-45.2,27.4
		c-3.5,2.1-7,4.1-10.5,6.1c-0.2,0.1-0.4,0.3-0.5,0.4c0,0,0,0,0,0c-0.3,0.2-0.6,0.3-0.9,0.5c0,0,0,0,0,0c-0.9,0.5-1.8,0.9-2.7,1.4
		c0,0,0,0,0,0c-1.7,0-2-1-1.7-2.4c0.3-1.4,0.8-2.9,1-4.3c0.2-1.7,0.3-3.5,0.4-5.2c0.9-9.6-0.8-19-2.8-28.3c4.7-2.2,9.4-4.5,14-6.7
		c0.5-0.2,1.1-0.3,1.7-0.5c4.8,1.7,9.6,2.3,14.3,0c4.1-2,8.1-4.1,11.9-6.6c1.5-0.9,2.4-2.8,3.8-4.6
		C166.1,170.8,165.4,170.6,164.7,170.5z M224.3,153.3c0.2,0,1.1,0.1,1.5-0.3c2.4-1.9,4.6-4,5.1-7.3c0.3-2.4-0.6-3.7-2.9-4.5
		c-3.3-1.1-7,1-8.7,5.1C217.9,149.6,220.2,153.2,224.3,153.3z M164.8,191.5c0-2.7-2-5.1-4.5-5.1c-2.8,0-7.1,4.2-7.2,7
		c-0.1,2.7,2.8,5.5,5.4,5.5C161.4,198.8,164.7,194.9,164.8,191.5z M289.8,112.7c0-1.8-1.5-3.3-3.4-3.3c-3.1-0.1-6.2,2.7-6.3,5.6
		c-0.1,1.9,1.6,3.7,3.6,3.7C286.4,118.9,289.7,115.6,289.8,112.7z M264,130.7c0-2.2-1.5-3.8-3.4-3.7c-2,0-4.2,2.4-4.2,4.5
		c0,1.8,1.6,3.5,3.2,3.5C262.1,134.9,264,133.1,264,130.7z"/>
	<path class="st2" d="M116.9,205.1c-0.1,6.7,0.5,13.4-1.7,20.1c-6.2,18.3-23.7,28.2-40.9,26.2c-7.9-0.9-15.2-3.3-21.9-7.7
		c-0.4-0.3-0.8-0.6-1.2-1l0,0c0.8,0.3,1.6,0.6,2.4,0.9c3.9,1.6,7.7,3.6,11.8,4.8c5.7,1.6,11.5,1.7,17.4,0.6c5.3-1,10.6-1.8,14.9-5.4
		c2.5-2.1,4.6-4.5,6.8-7c4.2-4.8,4.2-5.2,0.4-10.2c-0.2-0.2-0.4-0.4-0.6-0.7c0.2-2.8,0.3-5.6,0.5-8.4c0.6-7.4,0-14.7-2-22
		c-2.5-9-7.1-16.7-13.8-23C83,166.9,76,163.2,67.8,162c-6.8-0.9-12.8-0.1-18.4,4c-10.4,7.5-14,18.4-15.2,30.5
		c-0.6,5.7,1.2,11.3,3.3,16.5c4.8,11.6,13.5,19.7,24.5,25.3c6.2,3.2,12.9,4,19.8,2.6c5-1,9.2-3.6,13.2-6.6c1.1,0,2.3-0.1,3.4-0.1
		c-3.2,4.7-7.9,7.1-13.1,8.5c-8.7,2.4-17,0.9-24.9-2.9c-6.8-3.3-12.7-8-17-14.3c-1-1.5-1.8-1.6-3.2-0.6c-0.9,0.7-2.1,1.2-3.1,1.8
		c-1.3-2.1-2.6-4.2-3.9-6.3c-0.1-0.2-0.1-0.3-0.2-0.5c-0.1-0.2-0.2-0.3-0.2-0.5c-1.5-5.8-3.4-11.5-4.5-17.4
		c-1.4-7.1,0.1-14.1,2-21.1c2.4-8.7,6.9-16.1,13.8-21.9c6.7-5.6,14.7-7.4,23.1-6.2c6.8,0.9,13.1,3.9,18.7,7.9
		c0.2,0.2,0.5,0.4,0.7,0.6c0.2,0.1,0.4,0.2,0.6,0.3c0.2,0.2,0.3,0.4,0.5,0.6l0,0c0.2,0.2,0.3,0.3,0.5,0.5l0,0
		c0.3,0.2,0.6,0.3,0.9,0.5l0,0c0.2,0.2,0.3,0.3,0.5,0.5l0,0c0.2,0.2,0.3,0.3,0.5,0.5l0,0c0.2,0.2,0.3,0.3,0.5,0.5l0,0
		c0.2,0.2,0.3,0.3,0.5,0.5l0,0c0.4,0.3,0.9,0.6,1.3,0.9c0,0,0,0,0,0c0.5,0.6,0.9,1.2,1.4,1.8l0,0c0.2,0.1,0.3,0.3,0.5,0.4l0,0
		c0.7,0.6,1.5,1.2,2.2,1.8l0,0c0.2,0.2,0.3,0.3,0.5,0.5l0,0c0.2,0.2,0.3,0.3,0.5,0.5l0,0c0.2,0.3,0.3,0.6,0.5,0.9l0,0
		c0.3,0.3,0.6,0.6,0.9,0.9l0,0c0.1,0.2,0.3,0.3,0.4,0.5l0,0c0.1,0.2,0.3,0.3,0.4,0.5l0,0c0.1,0.3,0.3,0.7,0.4,1
		c0.7,1.1,1.5,2.2,2.2,3.3c0.1,0.2,0.3,0.5,0.4,0.7l0,0c0.2,0.3,0.3,0.6,0.5,0.9l0,0c0.2,0.3,0.3,0.6,0.5,0.9l0,0
		c0.3,0.6,0.6,1.2,0.9,1.8l0,0c0.6,1.2,1.2,2.4,1.8,3.6l0,0c0.2,0.3,0.3,0.6,0.5,0.9l0,0c1.1,2.8,2.1,5.7,3.2,8.5c0,0,0-0.1,0-0.1
		c0.1,0.3,0.2,0.6,0.3,0.9c0,0.3,0.1,0.6,0.1,0.8c0.3,0.9,0.5,1.8,0.8,2.7c0.5,1.7,1,3.4,1.4,5c0.2,1.2,0.3,2.3,0.5,3.4
		C114.4,206.6,115.6,205.8,116.9,205.1z M40.6,220.9c0-0.1-0.1-0.2-0.1-0.3c0,0-0.2,0-0.2,0c0,0.1,0,0.2,0,0.3
		C40.4,220.9,40.5,220.9,40.6,220.9z"/>
	<path class="st0" d="M128.8,114.8c-1.3,0.3-2.7,0.4-3.8,1c-10.9,5.9-21.8,11.8-32.6,17.8c-5,2.8-10,5.7-15,8.6
		c-3-0.6-6-1.2-9.3-1.9c3.7-2.2,7.4-4.4,11.2-6.5c12-6.7,24.1-13.3,36.1-20c9.5-5.3,19-10.5,28.5-15.8c9.4-5.2,18.7-10.5,28-15.7
		c23.1-12.8,46.3-25.5,69.3-38.3c5.6-3.1,11.1-6.1,17.4-7.5c11.5-2.5,22.2,0,31.9,6.3c2.4,1.6,4.4,3.8,6.5,5.8
		c-1.1-0.5-2.3-0.9-3.4-1.5c-7.1-4.3-14.5-7.3-23-6.9c-6.8,0.3-13.1,2.7-19.1,5.7c-7.8,4-15.4,8.4-23.1,12.6
		c-8.6,4.6-17.3,9.1-25.9,13.8c-7.8,4.3-15.6,8.7-23.3,13.1c-12.1,6.8-24.1,13.5-36.2,20.3c-1.7,0.9-3.9,1.6-4,4.1
		C134.6,108.5,130.4,110.5,128.8,114.8z"/>
	<path class="st0" d="M102.1,177.6c-0.7-1.1-1.5-2.2-2.2-3.3c-0.1-0.3-0.3-0.7-0.4-1c0,0,0,0,0,0c-0.1-0.2-0.3-0.3-0.4-0.5
		c0,0,0,0,0,0c-0.1-0.2-0.3-0.3-0.4-0.5l0,0c-0.3-0.3-0.6-0.6-0.9-0.9c0,0,0,0,0,0c-0.2-0.3-0.3-0.6-0.5-0.9c0,0,0,0,0,0
		c-0.2-0.2-0.3-0.3-0.5-0.5c0,0,0,0,0,0c-0.2-0.2-0.3-0.3-0.5-0.5c0,0,0,0,0,0c-0.7-0.6-1.5-1.2-2.2-1.8c0,0,0,0,0,0
		c-0.2-0.1-0.3-0.3-0.5-0.4c0,0,0,0,0,0c-0.5-0.6-0.9-1.2-1.4-1.8c0,0,0,0,0,0c-0.4-0.3-0.9-0.6-1.3-0.9c0,0,0,0,0,0
		c-0.2-0.2-0.3-0.3-0.5-0.5c0,0,0,0,0,0c-0.2-0.2-0.3-0.3-0.5-0.5c0,0,0,0,0,0c-0.2-0.2-0.3-0.3-0.5-0.5c0,0,0,0,0,0
		c-0.2-0.2-0.3-0.3-0.5-0.5l0,0c-0.3-0.2-0.6-0.3-0.9-0.5c0,0,0,0,0,0c-0.2-0.2-0.3-0.3-0.5-0.5c0,0,0,0,0,0
		c-0.2-0.2-0.3-0.4-0.5-0.6c-0.2-0.1-0.4-0.2-0.6-0.3c-0.2-0.2-0.5-0.4-0.7-0.6c-5.7-4-11.9-6.9-18.7-7.9
		c-8.4-1.2-16.4,0.6-23.1,6.2c-6.9,5.8-11.4,13.1-13.8,21.9c-1.9,6.9-3.3,14-2,21.1c1.1,5.9,3,11.6,4.5,17.4
		c0.1,0.2,0.2,0.3,0.2,0.5c0.1,0.2,0.1,0.3,0.1,0.5c-0.3,0.6-0.6,1.2-0.9,1.7c-5.3-9.8-7.6-20.3-6.9-31.4c0.1-2.7,0.3-5.4,0.8-8
		c2.8-15.7,11.3-27.1,26.2-33.2c5.7-2.3,11.9-2.4,17.8-0.9c12,2.9,22.2,8.8,30.3,18.2c6.2,7.2,10.7,15.3,13.3,24.5
		c-0.7,0.6-1.3,1.2-2,1.8c-0.7,0.6-1.3,1.3-1.9,1.9c-0.1-0.1-0.2-0.1-0.3-0.1c0,0,0,0.1,0,0.1c-1.1-2.8-2.1-5.7-3.2-8.5c0,0,0,0,0,0
		c-0.2-0.3-0.3-0.6-0.5-0.9c0,0,0,0,0,0c-0.6-1.2-1.2-2.4-1.8-3.6c0,0,0,0,0,0c-0.3-0.6-0.6-1.2-0.9-1.8c0,0,0,0,0,0
		c-0.2-0.3-0.3-0.6-0.5-0.9c0,0,0,0,0,0c-0.2-0.3-0.3-0.6-0.5-0.9c0,0,0,0,0,0C102.4,178.1,102.2,177.8,102.1,177.6z"/>
	<path class="st2" d="M245.3,148.9c0.1,0.4,0.2,0.8,0.2,1.2c0,0.1-0.1,0.2-0.1,0.3c0.1,0,0.2-0.1,0.3-0.1c1.7-0.9,3.5-1.6,5.1-2.6
		c6.7-4,13.3-8.1,20-12.2c8.1-4.9,16.1-9.7,24.2-14.6c1.3-0.8,2.6-1.5,3.7-2.4c2.4-2,4.7-0.6,7.1-0.2c0.3,0.1,0.4,0.7,0.6,1.1
		c-3,2.2-5.9,4.5-9,6.5c-11.3,7-22.8,13.8-34.2,20.7c-16.6,10-33.1,20-49.7,30c-2.1,1.3-4.2,2.5-6.3,3.7c0.5-1.5,1-3,1.6-4.7
		c0.5,0,1.1-0.1,1.7-0.1c0-0.2,0-0.5,0-0.7c-1.4,0.1-2.8,0.2-4.3,0.2c0.1-0.1,0.1-0.4,0.2-0.5c9.1-5.5,18.2-10.9,27.2-16.4
		c2.5-1.6,4.8-3.6,7.1-5.4C242.3,151.3,243.8,150.1,245.3,148.9z"/>
	<path class="st3" d="M141.9,145.8c-2.3,1.1-4.5,2.2-6.8,3.4c-0.7-0.5-1.4-1.1-2.2-1.3c-0.9-0.3-1.9-0.2-2.8-0.3
		c2.5-1.9,5.1-3.7,7.6-5.5C139.1,143.3,140.5,144.6,141.9,145.8z"/>
	<path class="st4" d="M110,195.4c0.6-0.6,1.3-1.3,1.9-1.9c0.6-0.6,1.3-1.2,2-1.8c0.8,3.3,1.6,6.5,2.4,9.8c-0.5-0.8-1.1-1.7-2-3.1
		c-0.8,2.5-1.4,4.4-2,6.3c-0.5-1.7-1-3.4-1.4-5c-0.3-0.9-0.5-1.8-0.8-2.7c0-0.3-0.1-0.6-0.1-0.8C110,195.9,110,195.6,110,195.4z"/>
	<path class="st5" d="M112.4,204.7c0.6-1.9,1.2-3.8,2-6.3c0.9,1.5,1.4,2.3,2,3.1c0.2,0.9,0.3,1.8,0.5,2.7c0,0.1-0.1,0.1-0.1,0.2
		c0,0.1,0.1,0.3,0.1,0.4c0,0.3,0,0.5,0,0.8c-1.2,0.8-2.4,1.5-4,2.5C112.7,207,112.6,205.8,112.4,204.7z"/>
	<path class="st2" d="M51.1,243.1c-3.1-2.8-6.3-5.5-9.4-8.3c0.1-0.4,0.3-0.7,0.4-1.1c2.2,2.3,4.4,4.6,6.6,6.9
		C49.6,241.4,50.3,242.3,51.1,243.1L51.1,243.1z"/>
	<path class="st2" d="M124.6,218.2c-0.1,1.7-0.1,3.5-0.4,5.2c-0.2,1.5-0.6,2.9-1,4.3c-0.3,1.4,0,2.4,1.7,2.4
		c-1.1,0.5-2.2,1.1-3.5,1.7C122.6,226.9,123.6,222.6,124.6,218.2z"/>
	<path class="st4" d="M32.4,222.5c0.3-0.6,0.6-1.2,0.9-1.7c1.3,2.1,2.6,4.2,3.9,6.3c0.2,0.4,0.4,0.9,0.5,1.3c-0.3,0.2-0.7,0.4-1,0.6
		C35.3,226.8,33.9,224.7,32.4,222.5z"/>
	<path class="st5" d="M36.8,228.9c0.3-0.2,0.7-0.4,1-0.6c1.5,1.8,2.9,3.6,4.4,5.4c-0.1,0.4-0.3,0.7-0.4,1.1
		C40.1,232.9,38.4,230.9,36.8,228.9z"/>
	<path class="st5" d="M89.1,147c2,0.1,3.6,0.7,4.5,2.7C92.1,148.8,90.6,147.9,89.1,147z"/>
	<path class="st5" d="M101.2,156c0.9,0.5,1.8,0.9,2.8,1.4C102.2,158.4,101.9,156.8,101.2,156z"/>
	<path class="st2" d="M124.9,230.2c0.9-0.5,1.8-0.9,2.7-1.4C126.7,229.3,125.8,229.7,124.9,230.2z"/>
	<path class="st5" d="M96.7,151.9c0.8,0.6,1.5,1.2,2.3,1.8C98.2,153.1,97.4,152.5,96.7,151.9z"/>
	<path class="st5" d="M86.5,145.7c0.7,0.3,1.4,0.6,2.1,0.9C88,146.3,87.2,146,86.5,145.7z"/>
	<path class="st2" d="M204,182.1c0.6-0.4,1.2-0.7,1.8-1.1C205.2,181.4,204.6,181.7,204,182.1z"/>
	<path class="st5" d="M95.3,151c0.5,0.3,0.9,0.6,1.4,0.9C96.3,151.6,95.8,151.3,95.3,151z"/>
	<path class="st2" d="M205.8,181c0.5-0.3,0.9-0.6,1.4-0.9C206.7,180.4,206.3,180.7,205.8,181z"/>
	<path class="st5" d="M85.7,145.2c0.3,0.1,0.5,0.3,0.7,0.4C86.2,145.5,85.9,145.4,85.7,145.2z"/>
	<path class="st2" d="M127.6,228.8c0.3-0.2,0.6-0.3,0.9-0.5C128.2,228.5,127.9,228.7,127.6,228.8z"/>
	<path class="st2" d="M116.8,204.7c-0.1-0.1-0.1-0.2-0.1-0.4c0,0,0.1-0.1,0.1-0.2C116.8,204.4,116.8,204.5,116.8,204.7z"/>
	<path class="st5" d="M88.6,146.6c0.2,0.2,0.3,0.3,0.5,0.5C89,146.9,88.8,146.7,88.6,146.6z"/>
	<path class="st5" d="M93.6,149.7c0.2,0.2,0.3,0.3,0.5,0.5C93.9,150,93.7,149.8,93.6,149.7z"/>
	<path class="st5" d="M94.8,150.6c0.2,0.2,0.4,0.3,0.6,0.5C95.2,150.9,95,150.8,94.8,150.6z"/>
	<path class="st5" d="M98.9,153.7c0.2,0.2,0.3,0.3,0.5,0.5C99.2,154,99.1,153.9,98.9,153.7z"/>
	<path class="st5" d="M99.4,154.2c0.2,0.2,0.3,0.3,0.5,0.5C99.7,154.5,99.5,154.3,99.4,154.2z"/>
	<path class="st5" d="M99.8,154.6c0.2,0.2,0.3,0.3,0.5,0.5C100.1,154.9,100,154.8,99.8,154.6z"/>
	<path class="st5" d="M100.3,155c0.2,0.2,0.3,0.3,0.5,0.5C100.6,155.4,100.4,155.2,100.3,155z"/>
	<path class="st2" d="M128.5,228.4c0.2-0.1,0.4-0.3,0.5-0.4C128.8,228.1,128.6,228.2,128.5,228.4z"/>
	<path class="st5" d="M100.7,155.5c0.2,0.2,0.3,0.3,0.5,0.5C101,155.8,100.9,155.7,100.7,155.5z"/>
	<path class="st1" d="M251.3,93.6c-2.6,1.7-5.1,3.5-7.7,5c-9.2,5.2-18.4,10.4-27.7,15.4c-9.9,5.3-19.5,11.1-30.4,14.3
		c-1.2,0.4-2.5,0.5-3.7,0.8c-0.1-0.3-0.3-0.6-0.4-0.8c4.8-3.1,9.3-6.6,14.3-9.3c12.8-6.9,25.8-13.5,38.8-20
		c5.2-2.6,10.6-5.1,16.5-5.8C251.1,93.2,251.2,93.4,251.3,93.6z"/>
	<path class="st1" d="M141.9,145.8c-1.4-1.3-2.8-2.6-4.2-3.8c9.7-5.3,19.4-10.7,29.2-15.8c3.6-1.8,7.5-3.3,12.5-2.1
		c-2.5,2-4.5,4.1-6.8,5.4c-6.3,3.7-12.7,7.1-19.1,10.6C149.6,142.2,145.7,144,141.9,145.8z"/>
	<path class="st3" d="M234,94.2c1.2-3.2-0.8-5.1-5.1-4.8c-0.4,0-0.8,0.2-1.5-0.2c2-1.1,3.9-2.3,6-3.4c2.4-1.2,4.8-2.3,7.2-3.6
		c4.6-2.6,9-5.5,13.7-7.8c7.7-3.8,14.9-8.6,23.3-11c0.4-0.1,0.8-0.2,1.2-0.3c0.1,0.2,0.2,0.3,0.4,0.5c-1.7,1.7-3.3,3.4-5,5.2
		c-0.3,0.1-0.5,0.3-0.8,0.4c0,0,0,0,0,0c-8.1,3.8-16.2,7.5-24.2,11.3c-4.8,2.3-4.7,2.4-2.6,7.1C242.3,89.8,238.2,92,234,94.2
		C234,94.2,234,94.2,234,94.2z"/>
	<path class="st1" d="M164.7,170.5c0.7,0.2,1.4,0.3,2.7,0.7c-1.4,1.8-2.3,3.6-3.8,4.6c-3.8,2.4-7.8,4.6-11.9,6.6
		c-4.7,2.3-9.5,1.7-14.3,0c5.9-3.5,11.8-7,17.9-10.4c1.4-0.8,3.3-0.9,4.9-1.3c0.4,0,0.8-0.1,1.3-0.1
		C162.6,170.5,163.6,170.5,164.7,170.5z"/>
	<path class="st1" d="M246.5,87.6c-2.1-4.7-2.1-4.8,2.6-7.1c8-3.9,16.1-7.6,24.2-11.3c-2.5,2.4-4.6,5.2-7.5,7.1
		C259.6,80.3,253,83.9,246.5,87.6z"/>
	<path class="st1" d="M128.8,114.8c1.6-4.3,5.8-6.3,10.4-4.9c0.2,0.2,0.4,0.4,0.7,0.5c2.5,1.4,3.7,3.4,3.3,5.5
		c-0.5,2.4-2.6,4.4-5.2,4.8c-2.5,0.4-4.7-0.1-6.7-1.6C129.7,117.9,128.7,116.7,128.8,114.8z"/>
	<path class="st1" d="M231.7,71.7c-3.8,0-5.7-1.1-6.2-3.4c-0.6-2.7,2-6,5.5-7.1c3.1-1,6.5,0.4,7.6,3c1.1,2.6-1.3,6.4-4.7,7.3
		C233.2,71.5,232.3,71.6,231.7,71.7z"/>
	<path class="st1" d="M298.1,72.9c-0.1,3.1-2.3,5.3-5.2,5.2c-2.7-0.1-4.8-2.6-4.7-5.4c0.1-2.7,2.3-4.7,5-4.7
		C296.1,68,298.2,70.1,298.1,72.9z"/>
	<path class="st1" d="M130.5,166.5c-0.6-0.5-2.3-1.2-3-2.4c-0.4-0.9,0.6-2.5,0.9-3.7c0.1-0.2,0.3-0.3,0.4-0.5c1.9-2,4.2-2.6,5.9-1.6
		c1.7,1,2.1,2.6,1.6,4.4C135.9,165.1,134.1,166.4,130.5,166.5z"/>
	<path class="st1" d="M267.4,47.2c2.2,0,4.4,1.9,4.4,3.8c0.1,2.1-2.8,4.2-5.7,4.1c-2.1,0-3.6-1.6-3.6-3.7
		C262.6,49,264.6,47.2,267.4,47.2z"/>
	<path class="st1" d="M118.7,133.1c-2.5,0-4.4-1.7-4.3-3.9c0-2.3,2.3-4.2,4.9-4.2c2.2,0,3.9,1.5,3.8,3.5
		C123.1,131,121.1,133.1,118.7,133.1z"/>
	<path class="st1" d="M152.7,111.2c2.1,0,4.1,2.2,4,4.2c-0.1,1.8-2,3.3-4.1,3.3c-1.9,0-3.6-1.8-3.5-3.8
		C149.2,112.8,150.8,111.1,152.7,111.2z"/>
	<path class="st3" d="M161.5,170.5c-0.4,0-0.8,0.1-1.3,0.1C160.7,170.6,161.1,170.6,161.5,170.5z"/>
	<path class="st1" d="M273.3,69.7c0.3-0.1,0.5-0.3,0.8-0.4C273.8,69.4,273.6,69.5,273.3,69.7z"/>
	<path class="st3" d="M234,94.2c0,0-0.1,0.1-0.1,0.1C233.9,94.3,233.9,94.3,234,94.2C234,94.2,234,94.2,234,94.2z"/>
	<path class="st1" d="M224.3,153.3c-4.1,0-6.5-3.6-5-7c1.7-4.1,5.3-6.2,8.7-5.1c2.3,0.8,3.3,2.2,2.9,4.5c-0.5,3.2-2.7,5.4-5.1,7.3
		C225.4,153.4,224.5,153.2,224.3,153.3z"/>
	<path class="st1" d="M164.8,191.5c0,3.4-3.4,7.3-6.3,7.3c-2.7,0.1-5.5-2.8-5.4-5.5c0.1-2.8,4.4-7,7.2-7
		C162.7,186.4,164.8,188.8,164.8,191.5z"/>
	<path class="st1" d="M245.3,148.9c-1.5,1.2-3,2.4-4.5,3.6c-3.6-1.2-4.3-2.5-4-5.2c0.2-2.5,3.3-5.3,5.8-5.6c2.3-0.3,4.1,2.2,3.5,4.8
		C245.8,147.3,245.5,148.1,245.3,148.9z"/>
	<path class="st1" d="M289.8,112.7c-0.1,2.8-3.4,6.2-6.1,6.1c-2-0.1-3.7-1.8-3.6-3.7c0.1-3,3.2-5.7,6.3-5.6
		C288.3,109.5,289.8,110.9,289.8,112.7z"/>
	<path class="st1" d="M264,130.7c0,2.4-1.9,4.3-4.4,4.2c-1.7,0-3.2-1.7-3.2-3.5c-0.1-2,2.2-4.4,4.2-4.5
		C262.5,126.9,263.9,128.4,264,130.7z"/>
	<path class="st1" d="M95,234.2c-4,3.1-8.2,5.7-13.2,6.6c-6.9,1.4-13.6,0.5-19.8-2.6c-11-5.6-19.7-13.7-24.5-25.3
		c-2.2-5.2-3.9-10.7-3.3-16.5c1.2-12,4.8-22.9,15.2-30.5c5.6-4,11.6-4.9,18.4-4c8.3,1.2,15.2,4.9,21.1,10.3c6.8,6.2,11.3,14,13.8,23
		c2.1,7.3,2.6,14.5,2,22C103.1,223.9,100.6,229.9,95,234.2z M60,202.8L60,202.8c-1,1.1-2.1,2.3-3.1,3.5c-0.3,1.1-0.6,2.2-0.8,3.3
		c-0.2,0.6-0.3,1.2-0.5,1.7c-0.1,0.3-0.2,0.7-0.3,1c-0.2,1.5-0.3,2.9-0.5,4.4c0.1,0.8,0.1,1.5,0.2,2.3c1.1,2.1,1.8,4.5,3.3,6.2
		c5.8,6.7,19.3,8.6,27.7,0.9c5.2-4.7,7.2-10.9,7.5-17.8c0.4,0.5,0.9,1,1.4,1.6c2.2-2.4,1.8-5.3,1.3-7.8c-2.1-9.9-5.1-19.3-13.9-25.8
		c-6-4.5-12.2-5.8-19.2-3.8c-0.6,0.2-1.1,0.7-1.7,1.1c1.2,0.6,2,1,2.8,1.4c-7.2-0.5-13.5,1.2-17.6,7.7c-5.7,8.8-6.6,18-1.2,27.3
		c0.5,0.9,1,1.8,1.5,2.7c0.6,1.3,1.2,2.7,1.9,4.4c2.1-4.2,2.9-9.4,2.5-14.7c0.2-1.7,0.2-3.5,0.7-5.1c1.6-5.3,7.5-10.7,14.8-8.9
		c9.4,2.3,17.4,15.5,13.7,25.3c-0.1,0.1-0.1,0.2-0.1,0.3c0,0,0,0,0,0c-1.5,2.5-3.5,4.5-6.3,5.3c-8.4,0.4-15-6.8-13.2-14.5
		c1-0.8,2-1.6,3-2.4c2.4,3.2,4.9,6.4,7.3,9.5c2.7-1.7,2.9-3.9,2.3-6.1c-0.8-3-2-5.9-5.6-6.7c-3,0.2-5.5,1.3-7.7,3.4
		c0,0-0.1,0.1-0.1,0.1C59.9,202.7,59.9,202.8,60,202.8z"/>
	<path class="st3" d="M42.2,233.7c-1.5-1.8-2.9-3.6-4.4-5.4c-0.2-0.4-0.4-0.9-0.5-1.3c1-0.6,2.2-1.1,3.1-1.8c1.4-1,2.1-0.9,3.2,0.6
		c4.3,6.3,10.2,11,17,14.3c7.9,3.8,16.2,5.4,24.9,2.9c5.2-1.5,10-3.8,13.1-8.5c2.6-2.3,4.7-5,5.8-8.3c0.2,0.2,0.4,0.4,0.6,0.7
		c3.8,5,3.8,5.4-0.4,10.2c-2.1,2.4-4.3,4.9-6.8,7c-4.2,3.6-9.6,4.4-14.9,5.4c-5.9,1.1-11.7,1-17.4-0.6c-4.1-1.1-7.9-3.2-11.8-4.8
		c-0.8-0.3-1.6-0.6-2.4-0.9c-0.8-0.8-1.5-1.7-2.3-2.5C46.6,238.3,44.4,236,42.2,233.7z"/>
	<path class="st5" d="M104.3,226.2c-1.1,3.4-3.2,6-5.8,8.3c-1.1,0-2.3,0.1-3.4,0.1c5.6-4.3,8.1-10.3,9.7-16.9
		C104.6,220.5,104.4,223.4,104.3,226.2z"/>
	<path class="st3" d="M106.6,186.3c1.1,2.8,2.1,5.7,3.2,8.5C108.7,192,107.6,189.2,106.6,186.3z"/>
	<path class="st3" d="M104.4,181.8c0.6,1.2,1.2,2.4,1.8,3.6C105.6,184.2,105,183,104.4,181.8z"/>
	<path class="st3" d="M94.1,167.9c0.7,0.6,1.5,1.2,2.2,1.8C95.6,169.2,94.8,168.5,94.1,167.9z"/>
	<path class="st3" d="M110.2,196.9c0.3,0.9,0.5,1.8,0.8,2.7C110.7,198.7,110.4,197.8,110.2,196.9z"/>
	<path class="st3" d="M92.3,165.8c0.5,0.6,0.9,1.2,1.4,1.8C93.2,166.9,92.7,166.3,92.3,165.8z"/>
	<path class="st3" d="M103.4,180c0.3,0.6,0.6,1.2,0.9,1.8C104.1,181.3,103.8,180.7,103.4,180z"/>
	<path class="st3" d="M90.9,164.8c0.4,0.3,0.9,0.6,1.3,0.9C91.8,165.4,91.4,165.1,90.9,164.8z"/>
	<path class="st3" d="M97.7,171.5c0.3,0.3,0.6,0.6,0.9,0.9C98.3,172.1,98,171.8,97.7,171.5z"/>
	<path class="st3" d="M40.6,221.3c-0.1,0-0.2,0-0.3,0c0-0.1,0-0.2,0-0.3c0,0,0.2,0,0.2,0C40.5,221.1,40.6,221.2,40.6,221.3z"/>
	<path class="st3" d="M110,195.4c0,0.2,0,0.5,0,0.7c-0.1-0.3-0.2-0.6-0.3-0.9C109.8,195.3,109.9,195.3,110,195.4z"/>
	<path class="st3" d="M106.1,185.4c0.2,0.3,0.3,0.6,0.5,0.9C106.4,186,106.3,185.7,106.1,185.4z"/>
	<path class="st3" d="M88.3,162.6c0.3,0.2,0.6,0.3,0.9,0.5C88.9,162.9,88.6,162.8,88.3,162.6z"/>
	<path class="st3" d="M103,179.2c0.2,0.3,0.3,0.6,0.5,0.9C103.3,179.8,103.1,179.5,103,179.2z"/>
	<path class="st3" d="M102.5,178.3c0.2,0.3,0.3,0.6,0.5,0.9C102.9,178.9,102.7,178.6,102.5,178.3z"/>
	<path class="st3" d="M97.2,170.7c0.2,0.3,0.3,0.6,0.5,0.9C97.5,171.3,97.4,171,97.2,170.7z"/>
	<path class="st3" d="M99.4,173.4c0.1,0.3,0.3,0.7,0.4,1C99.7,174,99.6,173.7,99.4,173.4z"/>
	<path class="st3" d="M98.6,172.4c0.1,0.2,0.3,0.3,0.4,0.5C98.8,172.7,98.7,172.6,98.6,172.4z"/>
	<path class="st3" d="M90.5,164.4c0.2,0.2,0.3,0.3,0.5,0.5C90.8,164.7,90.6,164.6,90.5,164.4z"/>
	<path class="st3" d="M93.6,167.5c0.2,0.1,0.3,0.3,0.5,0.4C94,167.8,93.8,167.6,93.6,167.5z"/>
	<path class="st3" d="M90,164c0.2,0.2,0.3,0.3,0.5,0.5C90.3,164.3,90.2,164.1,90,164z"/>
	<path class="st3" d="M89.6,163.5c0.2,0.2,0.3,0.3,0.5,0.5C89.9,163.8,89.7,163.7,89.6,163.5z"/>
	<path class="st3" d="M89.1,163.1c0.2,0.2,0.3,0.3,0.5,0.5C89.4,163.4,89.3,163.2,89.1,163.1z"/>
	<path class="st4" d="M33.1,220.3c-0.1-0.2-0.2-0.3-0.2-0.5C33,220,33,220.2,33.1,220.3z"/>
	<path class="st3" d="M99,172.9c0.1,0.2,0.3,0.3,0.4,0.5C99.3,173.2,99.1,173.1,99,172.9z"/>
	<path class="st3" d="M96.3,169.8c0.2,0.2,0.3,0.3,0.5,0.5C96.6,170.1,96.5,169.9,96.3,169.8z"/>
	<path class="st3" d="M87.8,162.2c0.2,0.2,0.3,0.3,0.5,0.5C88.1,162.5,88,162.3,87.8,162.2z"/>
	<path class="st3" d="M86,160.7c0.2,0.2,0.5,0.4,0.7,0.6C86.5,161.1,86.2,160.9,86,160.7z"/>
	<path class="st3" d="M102.1,177.6c0.1,0.2,0.3,0.5,0.4,0.7C102.4,178.1,102.2,177.8,102.1,177.6z"/>
	<path class="st3" d="M96.7,170.2c0.2,0.2,0.3,0.3,0.5,0.5C97,170.5,96.9,170.4,96.7,170.2z"/>
	<path class="st3" d="M87.3,161.6c0.2,0.2,0.3,0.4,0.5,0.6C87.7,162,87.5,161.8,87.3,161.6z"/>
	<path class="st3" d="M245.7,150.2c-0.1,0-0.2,0.1-0.3,0.1c0-0.1,0.1-0.2,0.1-0.3C245.6,150.1,245.6,150.2,245.7,150.2z"/>
	<path class="st2" d="M46.7,212.7c-0.5-0.9-1-1.8-1.5-2.7c-0.1-4.7-0.6-9.5-0.3-14.2c0.5-7.1,4.7-12.5,10.9-15.1
		c6.9-2.9,13.7-1,19.4,4.1c0.3,0.2,0.6,0.5,0.8,0.7l0.1,0c0.1,0.1,0.3,0.3,0.4,0.4l0,0c0.3,0.3,0.6,0.6,0.9,0.9l0,0
		c0.2,0.3,0.3,0.6,0.5,0.9l0,0c0.2,0.2,0.3,0.3,0.5,0.5l0,0c0.2,0.2,0.3,0.3,0.5,0.5l0,0c0.4,0.5,0.9,0.9,1.3,1.4l0,0
		c0.3,0.4,0.6,0.9,0.9,1.3l0,0c0.2,0.2,0.3,0.3,0.5,0.5l0,0c0.5,0.7,0.9,1.5,1.4,2.2l0,0c0.2,0.2,0.3,0.3,0.5,0.5l0,0
		c0.9,1.9,1.8,3.9,2.7,5.8l0,0c0.2,0.3,0.3,0.6,0.5,0.9l0,0c0.5,0.9,0.9,1.8,1.4,2.7c0.2,0.3,0.3,0.5,0.5,0.8
		c0.2,2.7,0.4,5.5,0.6,8.6c0.5-0.7,0.8-1,0.9-1.3c0.9-1.9,1.9-3.9,2.8-5.9c0.2,0.8,0.4,1.6,0.6,2.4c-0.3,6.8-2.3,13-7.5,17.8
		c-8.4,7.7-21.9,5.8-27.7-0.9c-1.5-1.7-2.2-4.1-3.3-6.2c-0.1-0.8-0.1-1.5-0.2-2.3c0.2-1.5,0.3-2.9,0.5-4.4c0.1-0.3,0.2-0.7,0.3-1
		c0.2-0.6,0.3-1.2,0.5-1.7c0.3-0.4,0.6-0.7,0.9-1.1c0.3,0.7,0.8,1.4,1,2.1c1.8,6.5,5.4,11.2,12.4,12.4c1,0,2,0,3,0
		c0.5-0.2,1-0.3,1.4-0.5c3.9-1.3,5.7-4.1,5.3-8.5c0,0,0,0,0,0c0.1,0,0.1,0,0.2-0.1c0-0.1-0.1-0.2-0.1-0.3c3.7-9.8-4.4-23-13.7-25.3
		c-7.3-1.8-13.2,3.6-14.8,8.9c-0.5,1.6-0.5,3.4-0.7,5.1c-0.6,0.6-1.2,1.2-1.9,1.7c-2.7,1.9-3.2,3.5-2.3,6.7
		C47,211.4,46.7,212.1,46.7,212.7z"/>
	<path class="st0" d="M75.3,184.8c-5.7-5.1-12.5-7-19.4-4.1c-6.3,2.6-10.4,8-10.9,15.1c-0.3,4.7,0.1,9.5,0.3,14.2
		c-5.3-9.4-4.4-18.5,1.2-27.3c4.1-6.4,10.4-8.2,17.6-7.7c13,2.4,20.4,11.2,25.7,22.4c-0.5,2.4-0.9,4.8-1.4,7.1
		c-0.2-0.3-0.3-0.5-0.5-0.8c-0.5-0.9-0.9-1.8-1.4-2.7c0,0,0,0,0,0c-0.2-0.3-0.3-0.6-0.5-0.9c0,0,0,0,0,0c-0.9-1.9-1.8-3.9-2.7-5.8
		c0,0,0,0,0,0c-0.2-0.2-0.3-0.3-0.5-0.5c0,0,0,0,0,0c-0.5-0.7-0.9-1.5-1.4-2.2c0,0,0,0,0,0c-0.2-0.2-0.3-0.3-0.5-0.5c0,0,0,0,0,0
		c-0.3-0.4-0.6-0.9-0.9-1.3l0,0c-0.4-0.5-0.9-0.9-1.3-1.4c0,0,0,0,0,0c-0.2-0.2-0.3-0.3-0.5-0.5c0,0,0,0,0,0
		c-0.2-0.2-0.3-0.3-0.5-0.5c0,0,0,0,0,0c-0.2-0.3-0.3-0.6-0.5-0.9c0,0,0,0,0,0c-0.3-0.3-0.6-0.6-0.9-0.9c0,0,0,0,0,0
		c-0.1-0.1-0.3-0.3-0.4-0.4c0,0-0.1,0-0.1,0C75.8,185.2,75.5,185,75.3,184.8z"/>
	<path class="st3" d="M89.7,197.4c-5.3-11.2-12.7-20-25.7-22.4c-0.8-0.4-1.6-0.8-2.8-1.4c0.6-0.4,1.1-0.9,1.7-1.1
		c7-2.1,13.3-0.7,19.2,3.8c8.7,6.5,11.8,15.9,13.9,25.8c0.5,2.5,0.9,5.5-1.3,7.8c-0.6-0.6-1-1.1-1.4-1.6c-0.2-0.8-0.4-1.6-0.6-2.4
		C91.7,203.1,90.7,200.3,89.7,197.4z"/>
	<path class="st0" d="M74.8,222.9c-0.5,0.2-1,0.3-1.4,0.5c-1,0-2,0-3,0c-7-1.2-10.6-5.9-12.4-12.4c-0.2-0.7-0.6-1.4-1-2.1
		c0-0.7-0.1-1.5-0.1-2.2c1-1.2,2.1-2.4,3.1-3.6c0.2,0.7,0.4,1.4,0.7,2.1c-1.8,7.7,4.8,15,13.2,14.5C76.6,220.1,74.3,222,74.8,222.9z
		"/>
	<path class="st3" d="M67.7,199.5c3.6,0.8,4.7,3.7,5.6,6.7c0.6,2.2,0.4,4.5-2.3,6.1c-2.4-3.2-4.9-6.3-7.3-9.5
		C65,201.7,66.3,200.6,67.7,199.5z"/>
	<path class="st3" d="M46.7,213.1c0.1-0.6,0.4-1.3,0.2-1.9c-0.9-3.2-0.4-4.8,2.3-6.7c0.7-0.5,1.3-1.2,1.9-1.7
		c0.4,5.3-0.4,10.4-2.5,14.7C47.8,215.8,47.2,214.5,46.7,213.1z"/>
	<path class="st4" d="M74.8,222.9c-0.5-1,1.8-2.9-1-3.1c2.9-0.9,4.8-2.8,6.3-5.3C80.5,218.9,78.8,221.6,74.8,222.9z"/>
	<path class="st2" d="M67.7,199.5c-1.3,1.1-2.7,2.2-4,3.4c-1,0.8-2,1.6-3,2.4c-0.2-0.7-0.4-1.4-0.7-2.1c0,0,0,0.1,0,0.1
		c0.1,0,0.2,0,0.3-0.1c-0.1-0.1-0.2-0.2-0.3-0.4C62.2,200.8,64.7,199.7,67.7,199.5z"/>
	<path class="st3" d="M56.9,206.8c0,0.7,0.1,1.5,0.1,2.2c-0.3,0.4-0.6,0.7-0.9,1.1C56.3,209,56.6,207.9,56.9,206.8z"/>
	<path class="st3" d="M54.7,217.2c0.1,0.8,0.1,1.5,0.2,2.3C54.8,218.7,54.8,217.9,54.7,217.2z"/>
	<path class="st3" d="M55.5,211.8c-0.1,0.3-0.2,0.7-0.3,1C55.3,212.5,55.4,212.1,55.5,211.8z"/>
	<path class="st4" d="M80.2,214.1c0,0.1,0.1,0.2,0.1,0.3c-0.1,0-0.1,0-0.2,0.1C80.1,214.4,80.2,214.3,80.2,214.1z"/>
	<path class="st0" d="M60,202.9c0.1,0.1,0.2,0.2,0.3,0.4c-0.1,0-0.2,0-0.3,0.1c0-0.1-0.1-0.2-0.1-0.3C59.9,203,60,202.9,60,202.9z"
		/>
	<path class="st5" d="M89.7,197.9c1,2.9,2,5.7,3,8.6c-0.9,2-1.9,3.9-2.8,5.9c-0.2,0.4-0.5,0.7-0.9,1.3c-0.2-3.2-0.4-5.9-0.6-8.6
		C88.8,202.6,89.3,200.2,89.7,197.9z"/>
	<path class="st3" d="M83.3,194.8c0.9,1.9,1.8,3.9,2.7,5.8C85.1,198.7,84.2,196.7,83.3,194.8z"/>
	<path class="st3" d="M86.5,201.5c0.5,0.9,0.9,1.8,1.4,2.7C87.4,203.3,86.9,202.4,86.5,201.5z"/>
	<path class="st3" d="M81.5,192.1c0.5,0.7,0.9,1.5,1.4,2.2C82.5,193.6,82,192.9,81.5,192.1z"/>
	<path class="st4" d="M70.4,223.5c1,0,2,0,3,0C72.4,223.5,71.4,223.5,70.4,223.5z"/>
	<path class="st3" d="M78.9,189c0.4,0.5,0.9,0.9,1.3,1.4C79.8,189.9,79.3,189.4,78.9,189z"/>
	<path class="st3" d="M80.2,190.3c0.3,0.4,0.6,0.9,0.9,1.3C80.8,191.2,80.5,190.8,80.2,190.3z"/>
	<path class="st3" d="M76.6,185.9c0.3,0.3,0.6,0.6,0.9,0.9C77.2,186.5,76.9,186.2,76.6,185.9z"/>
	<path class="st3" d="M77.5,187.2c0.2,0.3,0.3,0.6,0.5,0.9C77.8,187.8,77.7,187.5,77.5,187.2z"/>
	<path class="st3" d="M86,200.6c0.2,0.3,0.3,0.6,0.5,0.9C86.3,201.2,86.2,200.9,86,200.6z"/>
	<path class="st3" d="M75.3,184.8c0.3,0.2,0.6,0.5,0.8,0.7C75.8,185.2,75.5,185,75.3,184.8z"/>
	<path class="st3" d="M76.2,185.5c0.1,0.1,0.3,0.3,0.4,0.4C76.4,185.8,76.3,185.6,76.2,185.5z"/>
	<path class="st3" d="M81.1,191.7c0.2,0.2,0.3,0.3,0.5,0.5C81.4,192,81.3,191.8,81.1,191.7z"/>
	<path class="st3" d="M78,188.1c0.2,0.2,0.3,0.3,0.5,0.5C78.3,188.4,78.1,188.2,78,188.1z"/>
	<path class="st3" d="M82.9,194.3c0.2,0.2,0.3,0.3,0.5,0.5C83.2,194.7,83,194.5,82.9,194.3z"/>
	<path class="st3" d="M78.4,188.5c0.2,0.2,0.3,0.3,0.5,0.5C78.7,188.9,78.6,188.7,78.4,188.5z"/>
</g>
</svg>
