<?xml version="1.0" encoding="utf-8"?>
<!-- Generator: Adobe Illustrator 26.5.0, SVG Export Plug-In . SVG Version: 6.00 Build 0)  -->
<svg version="1.1" id="Vrstva_1" xmlns="http://www.w3.org/2000/svg" xmlns:xlink="http://www.w3.org/1999/xlink" x="0px" y="0px"
	 viewBox="0 0 49.3 47" style="enable-background:new 0 0 49.3 47;" xml:space="preserve">
<style type="text/css">
	.st0{fill:#1A0709;}
	.st1{fill:#FDFCFA;}
	.st2{fill:#F7CA6E;}
	.st3{fill:#F8AF42;}
	.st4{fill:#EE7519;}
	.st5{fill:#FAD60F;}
	.st6{fill:#FAB612;}
	.st7{fill:#E5281E;}
	.st8{fill:#F6A017;}
</style>
<path class="st0" d="M34.7,39.6c-0.4,1.3-0.7,2.7-1.3,3.9c-0.7,1.3-2.2,1.5-3.4,0.9c-2.9-1.4-5.8-3-8.6-4.7c-1.1-0.7-2-0.6-3.2-0.2
	c-2.6,1-5.3,2.1-8,2.5c-2.8,0.4-6-1.5-4.8-5.7c0.7-2.6,1.7-5.1,2.7-7.7c0.3-0.7,0.2-1.2-0.3-1.8c-1.5-2.3-3.2-4.5-4.2-7
	c-1.3-3.3,0.9-6.1,4.5-6.1c2.4,0,4.7,0.1,7.1,0.3c0.9,0.1,1.4-0.2,1.9-0.9c1.4-2.1,2.8-4.2,4.3-6.3c1.8-2.4,3.8-2.8,6.2-1.5
	c1.5,0.8,2,2.4,2.6,4c0.6,1.6,1.1,3.3,1.6,5c0.3,1,1,1.4,1.9,1.6c2.5,0.6,5,1.2,7.4,2c3.9,1.3,5.4,5.2,2,8.2c-2.2,2-4.8,3.7-7.2,5.4
	c-0.6,0.4-1,0.8-0.9,1.6c0.1,0.9,0,1.8,0,2.8C34.8,37,34.8,38.3,34.7,39.6z M8.4,23.2c0.7,1,1.3,2,2.1,2.9c0.8,1,1,1.9,0.4,3.1
	c-1,2.3-1.8,4.6-2.6,7c-0.3,0.9-0.8,2,0.3,2.9c0.8,0.1,1.7,0.5,2.3,0.3c2.7-0.8,5.4-1.7,8.1-2.7c1-0.4,1.7-0.3,2.5,0.3
	c2.4,1.6,4.8,3.1,7.3,4.5c2.1,1.1,3.3,0.4,3.6-1.9c0.2-1.9,0.4-3.9,0.2-5.8c-0.2-2.2,0.6-3.5,2.5-4.6c2.3-1.4,4.4-3.2,6.4-5
	c1.2-1,0.9-2.1-0.4-2.9c-0.5-0.3-1.2-0.4-1.7-0.7c-2.3-0.7-4.7-1.3-7-2c-1.3-0.3-2-1.1-2.4-2.4c-0.5-1.7-1.1-3.4-1.6-5.1
	C28,9.7,27.6,8.1,26,7.8c-1.8-0.4-2.6,1.1-3.5,2.3c-1.5,2-2.8,4.1-4.2,6.2c-0.5,0.7-1.1,1-2,0.9c-2.8-0.2-5.5-0.3-8.3-0.3
	c-1.5,0-2.3,1-1.8,2.4C6.8,20.7,7.7,21.9,8.4,23.2z"/>
<path class="st1" d="M39.4,20.5c0.6,0.2,1.2,0.3,1.7,0.7c1.3,0.8,1.5,2,0.4,2.9c-2.1,1.8-4.1,3.6-6.4,5c-1.9,1.2-2.7,2.4-2.5,4.6
	c0.2,1.9,0,3.9-0.2,5.8c-0.2,2.4-1.5,3.1-3.6,1.9c-2.5-1.4-4.9-2.9-7.3-4.5c-0.9-0.6-1.5-0.6-2.5-0.3c-2.7,1-5.4,1.9-8.1,2.7
	c-0.7,0.2-1.6-0.2-2.3-0.3c0.3-0.3,0.5-0.6,0.8-0.8c0.4-0.2,0.8-0.4,1.2-0.5c0.2-0.1,0.4-0.2,0.6-0.3c2.8-1.1,5.7-2.2,8.5-3.3
	c0.6,0.2,1.4,0.2,1.9,0.5c2.2,1.4,4.4,2.9,6.6,4.3c0.4,0.3,0.9,0.4,1.6,0.7c0-3.3,0-6.3,0-9.2c0-0.9,0.3-1.4,1.2-1.9
	c2.6-1.4,5-3,7.5-4.5c0.5-0.5,0.9-0.9,1.4-1.4c0.1-0.1,0.2-0.2,0.3-0.3c-0.3-0.4-0.6-0.7-0.9-1.1C39.2,21,39.4,20.7,39.4,20.5z"/>
<path class="st2" d="M39.4,20.5c0,0.2-0.2,0.5-0.1,0.6c0.3,0.4,0.6,0.7,0.9,1.1c-1.9-0.7-3.8-1.5-5.8-1.9c-2.9-0.6-5.7-1.3-6.2-4.9
	c0,0-0.1-0.1-0.1-0.1c-0.6-1.6-1-3.2-1.7-4.7c-0.7-1.6-1.6-1.7-2.6-0.2c-1.4,1.9-2.8,3.9-4,5.9c-0.9,1.5-2,2.2-3.8,1.9
	c-2.3-0.3-4.7-0.3-7-0.2C7.4,18,7,18.8,7.6,20c0.4,0.7,0.8,1.4,1.3,2.1c-0.2,0.4-0.3,0.7-0.5,1.1c-0.7-1.3-1.6-2.6-2.1-4
	c-0.5-1.4,0.2-2.4,1.8-2.4c2.8,0,5.5,0.1,8.3,0.3c0.9,0,1.5-0.2,2-0.9c1.4-2.1,2.8-4.1,4.2-6.2c0.9-1.2,1.7-2.7,3.5-2.3
	c1.6,0.3,2,1.9,2.4,3.3c0.5,1.7,1.1,3.4,1.6,5.1c0.4,1.2,1.1,2.1,2.4,2.4C34.8,19.2,37.1,19.9,39.4,20.5z"/>
<path class="st3" d="M8.4,23.2c0.2-0.4,0.3-0.7,0.5-1.1c1,1.2,2,2.4,3,3.5c1.1,1.1,1,2.3,0.5,3.5c-1.1,2.7-2.1,5.4-3.2,8
	c0.2,0.1,0.3,0.3,0.5,0.4c0.3,0,0.6,0,0.9,0.1c-0.4,0.2-0.8,0.3-1.2,0.5c-0.3,0.2-0.5,0.6-0.8,0.8c-1.1-0.8-0.6-2-0.3-2.9
	c0.8-2.4,1.6-4.7,2.6-7c0.5-1.2,0.4-2.1-0.4-3.1C9.7,25.2,9.1,24.2,8.4,23.2z"/>
<path class="st4" d="M28,15.3c0,0,0.1,0.1,0.1,0.1c0.5,3.6,3.3,4.3,6.2,4.9c2,0.4,3.9,1.3,5.8,1.9c-0.1,0.1-0.2,0.2-0.2,0.3
	c-1.2-0.1-2.4-0.2-3.6-0.3c-2.9-0.8-5.8-0.9-8.7,0.3c-1.4,0.6-2.6,1.3-3.7,2.4c-1.4,1.4-3,2.6-4.6,3.8c-1.1,0.8-2.2,1.6-3.5,1.9
	c-1.6,0.4-3.1,0.8-4.1,2.3c0.6-1.3,1.2-2.7,1.8-4c0.5-1,0.5-1.8-0.2-2.7c-0.4-0.5-0.8-0.9-1-1.5c-0.6-1.2-1.8-2.3-1.4-3.9
	c1.6,0,3.3-0.1,4.8,0c2.1,0.2,4,0,5.4-1.8c1.1-1.4,2.4-2.6,3.7-3.9c0.6-0.6,1.2-0.7,1.9-0.1C27.1,15.4,27.6,15.2,28,15.3z"/>
<path class="st5" d="M38.6,23.9c-2.5,1.5-5,3.1-7.5,4.5c-0.9,0.5-1.2,1-1.2,1.9c0,3,0,6,0,9.2c-0.7-0.3-1.2-0.4-1.6-0.7
	c-2.2-1.4-4.4-2.9-6.6-4.3c-0.5-0.3-1.3-0.4-1.9-0.5c0.3-0.1,0.7-0.2,1-0.3c0.7-0.3,1.5-0.5,2-1c1.3-1.3,2.5-2.7,3.8-4
	c2.8-2.7,6.6-3.8,10-5.4C37,23.2,38.1,22.7,38.6,23.9z"/>
<path class="st6" d="M38.6,23.9c-0.5-1.1-1.5-0.7-2.1-0.5c-3.4,1.6-7.2,2.7-10,5.4c-1.3,1.3-2.4,2.7-3.8,4c-0.5,0.5-1.3,0.7-2,1
	c-0.3,0.1-0.7,0.2-1,0.3c-2.8,1.1-5.7,2.2-8.5,3.3c-0.2,0.1-0.4,0.2-0.6,0.3c-0.3,0-0.6,0-0.9-0.1c0.3-0.5,0.7-0.9,0.8-1.4
	c0.3-1.7,1.5-2.4,3.1-2.7c3.9-0.8,7.3-2.7,10.2-5.4c1.6-1.5,3.2-2.9,5.5-3.5c2.4-0.6,4.6-1.7,7-2.6c1.2,0.1,2.4,0.2,3.6,0.3
	C39.5,22.9,39,23.4,38.6,23.9z"/>
<path class="st7" d="M28,15.3c-0.4,0-0.9,0.1-1.2-0.1c-0.7-0.6-1.4-0.5-1.9,0.1c-1.3,1.3-2.6,2.5-3.7,3.9c-1.5,1.8-3.3,2-5.4,1.8
	c-1.6-0.2-3.2,0-4.8,0c-0.5,1.7,0.8,2.7,1.4,3.9c0.2,0.5,0.6,1,1,1.5c0.7,0.9,0.7,1.7,0.2,2.7c-0.6,1.3-1.2,2.7-1.8,4
	c-0.8,1.4-1.7,2.9-2.5,4.3c1.1-2.7,2.1-5.4,3.2-8c0.5-1.3,0.6-2.4-0.5-3.5c-1.1-1.1-2-2.4-3-3.5C8.5,21.5,8,20.8,7.6,20
	C7,18.8,7.4,18,8.8,18c2.3,0,4.7-0.1,7,0.2c1.9,0.2,2.9-0.4,3.8-1.9c1.3-2,2.6-4,4-5.9c1-1.4,1.9-1.4,2.6,0.2
	C27,12.1,27.5,13.7,28,15.3z"/>
<path class="st8" d="M9.2,37.3c0.8-1.4,1.7-2.9,2.5-4.3c1-1.5,2.5-1.9,4.1-2.3c1.2-0.3,2.4-1.1,3.5-1.9c1.6-1.2,3.2-2.4,4.6-3.8
	c1.1-1.1,2.3-1.9,3.7-2.4c2.9-1.2,5.8-1.1,8.7-0.3c-2.3,0.9-4.6,2-7,2.6c-2.3,0.5-3.9,2-5.5,3.5c-3,2.7-6.3,4.6-10.2,5.4
	c-1.5,0.3-2.7,1-3.1,2.7c-0.1,0.5-0.5,0.9-0.8,1.4C9.5,37.6,9.4,37.4,9.2,37.3z"/>
</svg>
