<?xml version="1.0" encoding="utf-8"?>
<!-- Generator: Adobe Illustrator 26.5.0, SVG Export Plug-In . SVG Version: 6.00 Build 0)  -->
<svg version="1.1" id="Vrstva_1" xmlns="http://www.w3.org/2000/svg" xmlns:xlink="http://www.w3.org/1999/xlink" x="0px" y="0px"
	 viewBox="0 0 390 12.9" style="enable-background:new 0 0 390 12.9;" xml:space="preserve">
<path id="Path_182" d="M8.3,9.1C8.7,9,9.1,8.8,9.6,8.7c20-5.2,36.1-3.6,41.6-1.9c6.8,2.2,13.9,3.4,21,3.7c8,0.4,17.5,0.2,25.4-1.8
	c45.9-11.3,64.2-9.4,77.4-4.6c4.2,1.4,8.6,2,13,1.9h0.1c3.4,0,6.9-0.3,10.3-0.8c2.9-0.4,5.8-0.7,8.8-0.9c12.2-0.9,24.7,0.3,34.9,3.3
	c6,1.8,15.9,3.7,26,1.1C349.6-11.6,390,9.9,390,9.9v3H0v-3C0,9.9,6.3,9.8,8.3,9.1z"/>
</svg>
